<svg id="Layer_1" data-name="Layer 1" xmlns="http://www.w3.org/2000/svg" viewBox="0 0 859.94 330.44"><defs><style>.cls-1{fill:#010101;}.cls-1,.cls-2,.cls-3,.cls-4,.cls-5{fill-rule:evenodd;}.cls-2{fill:#fff;}.cls-3{fill:#bee3d5;}.cls-4{fill:#ed2224;}.cls-5{fill:#f6eb16;}</style></defs><title>Banner</title><path class="cls-1" d="M483.69,475.08q-2.26,3.26-4.31,6.66-2.91,4.81-5.45,9.83l-.13.26a29.17,29.17,0,0,0-7.12-.16l-.52.05-.51.07a29.26,29.26,0,0,0-9.59,3.14l-.72.38a31.07,31.07,0,0,0-19.63,3.85l-1-.46a35.7,35.7,0,0,0-10.45-2.92l36.8-53.63ZM574,481.46s0,.09,0,.14a23.64,23.64,0,0,0,.26,4.83,31.64,31.64,0,0,0-3-1.48ZM338.06,470.27a43.16,43.16,0,0,0-7.82.17,49.59,49.59,0,0,0-8.81,1.8l8.51-12.4Zm-76.77,89.63a41,41,0,0,0,1.16,5.24,34.71,34.71,0,0,0,2,5.14,35.91,35.91,0,0,0,3,5.2l.07.1a38.75,38.75,0,0,0,3.71,4.49,40.34,40.34,0,0,0,4.74,4.21,45.27,45.27,0,0,0,6.91,4.34,47.51,47.51,0,0,0,26.89,4.63,56.25,56.25,0,0,0,7.74-1.4,62.12,62.12,0,0,0,22-10.78,30.8,30.8,0,0,0,16.1,2.5,28.54,28.54,0,0,0,13-4.76,35,35,0,0,0,8.17.35,37.64,37.64,0,0,0,11.86-2.86q1.63-.69,3.19-1.5a36.92,36.92,0,0,0,25.8.09,38.48,38.48,0,0,0,15.26,1.4,31.86,31.86,0,0,0,4.32-.76,32.93,32.93,0,0,0,3.6-.2,29.63,29.63,0,0,0,15.29-6.19,27.2,27.2,0,0,0,8.41-11.41q.37-1,.79-1.89a28.8,28.8,0,0,0,7.11,6.34,33.17,33.17,0,0,0,10.21,4.29,34.77,34.77,0,0,0,11.88.68,38.68,38.68,0,0,0,11.79-3.27,30.52,30.52,0,0,0,14.83,2A29,29,0,0,0,535.86,560a44.41,44.41,0,0,0,15.29.89,53.31,53.31,0,0,0,11-2.42,59.92,59.92,0,0,0,9.73-4.23,71.58,71.58,0,0,0,7.72-4.83q1.71-1.23,3.35-2.57a36.17,36.17,0,0,0,3.67,2.75,40,40,0,0,0,6.73,3.53,41.6,41.6,0,0,0,8,2.36,46.26,46.26,0,0,0,6.88.78,51,51,0,0,0,7.53-.27,48,48,0,0,0,8.37-1.64,41.65,41.65,0,0,0,5-1.83,40.09,40.09,0,0,0,5.28-2.79,36.85,36.85,0,0,0,5-3.77,30.49,30.49,0,0,0,6-7.28,26.85,26.85,0,0,0,2.5-5.62l20.62,26.49,48.33-70.44,68.18,99.38L890,453.81,792.35,311.52l-54.24,69.67-76.77-98.61-56.22,82L535.55,263.13,460.37,359.7l-74.42-95.6L317.13,364.4l-63.25-81.26L185,383.54l-57.35-73.67L30,452.16,134.89,586.86l68.88-100.39,57.35,73.67Z" transform="translate(-30.03 -263.13)"/><path class="cls-2" d="M625.5,494.58a18,18,0,0,1,7.37.38,4.81,4.81,0,0,1,3.38,3.23q.91,3.07-1.56,6.29-2.37,3.05-8.22,5.4a22.26,22.26,0,0,1-5.56,1.51q-3.17.34-3.75-1.58-.39-1.3,1.23-2.17.41-.2,4.88-1.44a11.52,11.52,0,0,0,4.6-2.38q1.69-1.42,1.27-2.82a2.24,2.24,0,0,0-1.39-1.52,6.17,6.17,0,0,0-2.88-.23,20.24,20.24,0,0,0-8.95,3.49q-5.3,3.42-4.17,7.22.8,2.71,6,6.33,5.77,3.94,6.69,7,1.36,4.58-3.76,7.82a17.83,17.83,0,0,1-7.76,2.51q-7.26.78-12.1-2.4a10.38,10.38,0,0,1-4.44-5.75,7.84,7.84,0,0,1,1-7.14,4.89,4.89,0,0,1,3.54-2.26q1.89-.2,2.2.84a2.08,2.08,0,0,1-.31,1.32,7.7,7.7,0,0,0-.18,5.44,6.67,6.67,0,0,0,3.93,4,10.81,10.81,0,0,0,5.83,1,6.05,6.05,0,0,0,4.21-1.85,3.2,3.2,0,0,0,.5-3.06q-.65-2.19-5.31-5.28-6.41-4.25-7.57-8.15-1.55-5.21,5.5-10.1A33.81,33.81,0,0,1,625.5,494.58Zm-17.21-32.47a4.62,4.62,0,0,1,2,.21,2.66,2.66,0,0,1,1.83,1.68q.67,2.24-4.81,15.08-1.94,4.51-3.32,5.62a4.1,4.1,0,0,1-2.14.93,2.82,2.82,0,0,1-3.37-2.16q-.45-1.51,1.21-5.39,3.83-10,4.06-11Q604.89,462.48,608.29,462.11Zm-65.82,62.61a31.05,31.05,0,0,0,7.48-3.71,22.56,22.56,0,0,0,6.51-7.26,3.09,3.09,0,0,0,.47-2.36q-.31-1-1.74-.89-2,.21-5,2.64A23.14,23.14,0,0,0,542.47,524.73ZM542,529l.28.94a3.45,3.45,0,0,0,1.42,1.89q2.46,1.72,6.77,1.26,9.45-1,18.88-12.36a5.33,5.33,0,0,1,3.19-2.12,2.71,2.71,0,0,1,1.68.41,1.49,1.49,0,0,1,.69.73q.6,2-5.22,7.66a46,46,0,0,1-10.26,7.5,30.53,30.53,0,0,1-11.23,3.69,15.57,15.57,0,0,1-9.72-1.74,8.12,8.12,0,0,1-3.71-4.86q-2.61-8.8,6.9-18.53,7.71-7.93,15-8.71a8.4,8.4,0,0,1,3.8.45,4.23,4.23,0,0,1,2.82,2.65q.82,2.76-1.69,7.17Q556.41,524.13,542,529Zm-4.16-41.34q3.4-.37,4.11,2,.65,2.18-1.89,5.2a8.15,8.15,0,0,1-5.37,3.21,4.18,4.18,0,0,1-2.56-.47,2.61,2.61,0,0,1-1.4-1.57q-.74-2.5,2.43-5.74A7.87,7.87,0,0,1,537.85,487.62Zm-8.63,20.86a3.77,3.77,0,0,1,2.32.45,2.1,2.1,0,0,1,.94,1.08q.28.94-1.27,3.36-5.37,9.23-7.09,15a81.82,81.82,0,0,0-2.87,12.13,3.2,3.2,0,0,1-3,3,4,4,0,0,1-2.67-.57,2.48,2.48,0,0,1-1.26-1.37q-.46-1.56,1.75-10.93,1.71-7.38,7.67-16.73a25.71,25.71,0,0,1,3-4.14A3.94,3.94,0,0,1,529.22,508.48Zm-33.63,9.44a88.29,88.29,0,0,0,21.16-26.46q4.25-8,3.54-10.43-.34-1.15-1.78-1-4.16.45-11.73,13A125,125,0,0,0,495.59,517.93Zm-2.91,8.86q-1.06,4.31-1.45,6.93a9.75,9.75,0,0,0-.1,3.61q.39,1.3,2.2,1.11,2.72-.29,6-4.3a53.58,53.58,0,0,0,4.21-6.85,3.64,3.64,0,0,1,2.8-2.13q2-.21,2.35,1.09.67,2.24-4.79,9.86-5.67,8-12.32,8.69a7.8,7.8,0,0,1-5.18-1.16,4.9,4.9,0,0,1-2.15-2.78q-.86-2.91.17-8.34a91.38,91.38,0,0,1,3.91-13.37q7.42-20.2,17.34-33.84,7.9-11,15-11.72a6.48,6.48,0,0,1,4.06.8A4.5,4.5,0,0,1,527,477q2.16,7.29-11.7,26.3a123.64,123.64,0,0,1-15.78,17.28Q497.06,522.87,492.68,526.78Zm-45.91,5.13a110.85,110.85,0,0,1,13.91-12.52,62.49,62.49,0,0,1,6.37-4.29,8.36,8.36,0,0,1,2.26-1.05,4,4,0,0,1,2.61.9,2.22,2.22,0,0,1,1,1.07q.28.94-2.12,2.86-6.46,5-5.82,7.18.36,1.2,2.32,1,3.25-.35,10.09-4.91a4.93,4.93,0,0,1,2.08-.87,2.47,2.47,0,0,1,1.33.29,1.67,1.67,0,0,1,1,.91q.46,1.56-4.93,5.47a23.76,23.76,0,0,1-11.6,4.8,12.16,12.16,0,0,1-4.72-.4,3.38,3.38,0,0,1-2.51-2.41,4,4,0,0,1,.71-3.14q-5.11,3.56-11.09,11.51a57.47,57.47,0,0,0-6.1,11.78A4.16,4.16,0,0,1,438,553q-2.8.3-3.34-1.52t1.57-9.95q3.1-12.15,8.34-19.22,3.23-4.38,6.17-4.7a4.45,4.45,0,0,1,1.94.22A2,2,0,0,1,454,519q.23.78-.86,2.35l-3,3.92A21.61,21.61,0,0,0,446.77,531.91Zm-24.7-6.19a8.1,8.1,0,0,0-2.47-1.48,5.45,5.45,0,0,0-2.43-.3q-5.75.62-10.42,8.27-5.14,8.45-3.56,13.76a3.28,3.28,0,0,0,1.31,1.9,3.52,3.52,0,0,0,2.35.44q3.63-.39,6.89-6.23a67.23,67.23,0,0,0,4.18-9.32,34.93,34.93,0,0,1,2.4-5.31A7.79,7.79,0,0,1,422.07,525.72Zm-4.36,18.15a32.71,32.71,0,0,1-3.4,5.63q-3.56,4.57-8.24,5.08a9.45,9.45,0,0,1-7.14-2,7.72,7.72,0,0,1-2.64-3.9q-1.71-5.78,1.51-13.32a31.32,31.32,0,0,1,10.67-13.45,20.4,20.4,0,0,1,9.7-3.84,10.88,10.88,0,0,1,5.69.78,4.36,4.36,0,0,1,2.62,2.51,6,6,0,0,1-.34,3.31,3.89,3.89,0,0,1,1.71,1.8q.33,1.09-1,3.82a29.22,29.22,0,0,0-2.38,7.24q-1,4.73-.21,7.44a5.56,5.56,0,0,0,3,3.39,20.06,20.06,0,0,0,3.45.86,3,3,0,0,1,2.54,2,1.55,1.55,0,0,1-.58,1.73,4.4,4.4,0,0,1-2.44,1,12.33,12.33,0,0,1-7.77-1.74,8.21,8.21,0,0,1-3.93-4.84A33,33,0,0,1,417.71,543.86Zm-56-7a59.61,59.61,0,0,1,9.19-7.92q6.16-4.21,9.26-4.55a5.46,5.46,0,0,1,2.71.46,3.06,3.06,0,0,1,1.93,1.78q.42,1.41-2,4.72a50.57,50.57,0,0,0-6.43,11.44q-1.67,4.37-1.23,5.83t2.38,1.19q4.08-.44,10.79-11.48,1.36-2.24,2.95-2.41t2,1.08q.6,2-3.44,8.38a30.15,30.15,0,0,1-8.16,8.78,14.3,14.3,0,0,1-6.41,2.57,6.53,6.53,0,0,1-5.26-1.42,5.4,5.4,0,0,1-1.7-2.56q-1.37-4.63,1.63-11.08.72-1.53,4.42-8.75-13.83,7-19.2,26a2.57,2.57,0,0,1-2.42,2.36,4.37,4.37,0,0,1-2.54-.42,2.84,2.84,0,0,1-1.43-1.67q-.51-1.72,1.95-10.26a242.11,242.11,0,0,1,9.3-27q4.69-11.25,10.9-23.47a18.27,18.27,0,0,1,2.47-4,3.79,3.79,0,0,1,5.08-.5,2.9,2.9,0,0,1,1.25,1.58q.43,1.46-1.26,4.16a211.32,211.32,0,0,0-10.58,20.86Q362.46,532.54,361.7,536.81Zm-28.52-44a12.88,12.88,0,0,1,8.53,1.66,8,8,0,0,1,3.61,4.55q1.5,5-1.5,12a36.66,36.66,0,0,1-7.77,11.15q-3.38,3.32-5.8,3.58A5.44,5.44,0,0,1,327,525a2.91,2.91,0,0,1-1.51-1.66q-.54-1.82,3.37-4.66a30.55,30.55,0,0,0,8.19-8.41q4-6.34,2.79-10.29a3.6,3.6,0,0,0-1.73-2.28,5.66,5.66,0,0,0-3.29-.45q-4.16.45-10.55,5.44a87,87,0,0,0-14.58,14.74Q300.4,529,296.93,539.63q-3.59,11-1.43,18.31a9.61,9.61,0,0,0,4.71,5.61,13.85,13.85,0,0,0,8.76,1.9q8.16-.88,18-11a68,68,0,0,0,6.71-8.68,31.27,31.27,0,0,0,3.1-5.06,2.63,2.63,0,0,1,2.2-1.8q1.66-.18,2,.91.7,2.34-5.34,11.43a49.37,49.37,0,0,1-12.19,12.81,34.37,34.37,0,0,1-16.55,6.79,20.6,20.6,0,0,1-15.3-4,14.79,14.79,0,0,1-5.46-7.63q-3.34-11.24,7-30a97.19,97.19,0,0,1,20.77-26.47Q324.19,493.76,333.18,492.79Zm102.73,13.37a26.72,26.72,0,0,0-3.66-2,31.21,31.21,0,0,0-16.41-2.46,40.77,40.77,0,0,0-22,9.73q-.51-.31-1-.59.93-1.68,1.89-3.35a27.79,27.79,0,0,0,2-3.91,19.57,19.57,0,0,0,1.55-7.23,17.17,17.17,0,0,0-.67-5,19.43,19.43,0,0,0-8-10.65,24.07,24.07,0,0,0-24-1.69,22,22,0,0,0-6.57,4.9q-.67.73-1.27,1.51a26.87,26.87,0,0,0-5.5-4.5,30.71,30.71,0,0,0-10.65-4.14,36.22,36.22,0,0,0-10.74-.37,43.58,43.58,0,0,0-9.5,2.15,51.73,51.73,0,0,0-8.14,3.64,63.74,63.74,0,0,0-6.47,4.11q-3.06,2.21-5.87,4.67-3.59,3.15-6.83,6.59a118.9,118.9,0,0,0-17.59,24.39q-2,3.55-3.65,7.22a79.54,79.54,0,0,0-3.52,9q-.76,2.39-1.32,4.82a50.05,50.05,0,0,0-1,5.83,41.18,41.18,0,0,0-.2,6.53,35,35,0,0,0,1.36,8.11,29.42,29.42,0,0,0,4.14,8.6l.06.08a33.57,33.57,0,0,0,7.18,7.38,38.9,38.9,0,0,0,13.3,6.6,43.26,43.26,0,0,0,16.23,1.2,50,50,0,0,0,6.92-1.25,57.54,57.54,0,0,0,22.88-12.15A24.3,24.3,0,0,0,355,577.62a22.11,22.11,0,0,0,12.23-5.23,30.35,30.35,0,0,0,19.19-1.61,36.89,36.89,0,0,0,5.17-2.68A30,30,0,0,0,408.32,571a30.42,30.42,0,0,0,9.17-2.49,32.52,32.52,0,0,0,14.83,1.82,25.9,25.9,0,0,0,4.21-.8,27,27,0,0,0,3.68-.16,23.68,23.68,0,0,0,12.22-4.92,21.22,21.22,0,0,0,6.56-8.9,49.55,49.55,0,0,1,2.93-6.23,33,33,0,0,0,6.11-.2,22.22,22.22,0,0,0,7.63,8,27.21,27.21,0,0,0,8.38,3.52,28.87,28.87,0,0,0,9.84.56,32.81,32.81,0,0,0,12.36-4,24.29,24.29,0,0,0,14.27,2.7,22.42,22.42,0,0,0,13.82-6.57,33.92,33.92,0,0,0,5,1.29,39.12,39.12,0,0,0,11.1.31,47.5,47.5,0,0,0,9.78-2.15A54.12,54.12,0,0,0,569,549a64.27,64.27,0,0,0,14.2-10.38,29.32,29.32,0,0,0,6.67,6,34.78,34.78,0,0,0,12.55,5,42.65,42.65,0,0,0,12.66.44,42,42,0,0,0,7.34-1.44,34.91,34.91,0,0,0,8.82-3.94,30.83,30.83,0,0,0,4.22-3.17,24.58,24.58,0,0,0,4.82-5.86,20.61,20.61,0,0,0,2.35-15.16,28.94,28.94,0,0,0,9.33-9.78A21.21,21.21,0,0,0,654.13,494a20.51,20.51,0,0,0-5.21-8.76,25.85,25.85,0,0,0-14.74-7,36.15,36.15,0,0,0-4.26-.37q-1.23,0-2.45,0a71.8,71.8,0,0,0,2.3-7,24.18,24.18,0,0,0,.9-6.64c-.15-7.93-5.75-14.64-13.82-17.38a25.13,25.13,0,0,0-10.8-1.17A23.36,23.36,0,0,0,590.31,454a22.71,22.71,0,0,0-3.18,5.24,26.1,26.1,0,0,0-1.32,3.83q-.37,1.06-.76,2.12-1.34,3.6-2.72,7.19-.74,1.74-1.3,3.53a23.38,23.38,0,0,0-1.09,5.93,18.22,18.22,0,0,0,2.46,10,19.69,19.69,0,0,0,5.73,6.28,22.4,22.4,0,0,0-2.4,7l-.55.48a22,22,0,0,0-4-2.07c-1.87-6.36-7-11.27-13.71-13.74a28.59,28.59,0,0,0-7-1.58,18.55,18.55,0,0,0-.55-2.69,19.58,19.58,0,0,0-10.64-12.24,23.51,23.51,0,0,0-4.67-1.63,19.82,19.82,0,0,0-4-6.64,23.67,23.67,0,0,0-6-4.71,25.84,25.84,0,0,0-7.46-2.79,27.53,27.53,0,0,0-8.74-.38,32.24,32.24,0,0,0-11.59,3.66,39.62,39.62,0,0,0-7.5,5.26,52.62,52.62,0,0,0-5,5.1q-2.15,2.49-4.06,5.14-3,4.14-5.63,8.49-2.8,4.63-5.23,9.44-1.13,2.23-2.18,4.48a24,24,0,0,0-2.59-.72,23.13,23.13,0,0,0-7.22-.41l-.4,0-.4.06a21.76,21.76,0,0,0-4.43,1.1,26.44,26.44,0,0,0-3.24,1.43q-.93.48-1.83,1l-.54.32a25,25,0,0,0-8.23-.38A25.59,25.59,0,0,0,435.91,506.16Z" transform="translate(-30.03 -263.13)"/><path class="cls-3" d="M488.08,471.37q1.11-1.42,2.3-2.79a56.89,56.89,0,0,1,5.45-5.52,43.87,43.87,0,0,1,8.41-5.89,37.54,37.54,0,0,1,13.45-4.24,32.77,32.77,0,0,1,10.44.46,31,31,0,0,1,8.91,3.33,26.34,26.34,0,0,1,11.19,11.53c8.05,2.66,14,8.59,16.24,16.12l16.11-20.7c.33-.9.57-1.54.61-1.67a30.17,30.17,0,0,1,1.48-4.26,26.83,26.83,0,0,1,3.76-6.19,28.28,28.28,0,0,1,19.06-10.1,30.4,30.4,0,0,1,13.07,1.41,26,26,0,0,1,12.58,8.89,21.24,21.24,0,0,1,4.34,12.44,24.75,24.75,0,0,1-.29,4.15,37.24,37.24,0,0,1-1.32,5.53l1.09.15a33.64,33.64,0,0,1,10,3A25.92,25.92,0,0,1,658.77,493a24.4,24.4,0,0,1,.71,10.6,26.52,26.52,0,0,1-3.21,9.1,32.19,32.19,0,0,1-8.44,9.62q.09.74.13,1.47l20.34,26.13L716.92,479l68.48,99.81,97.49-125.23L792.06,321.21l-53.95,69.3-76.48-98.24-56.52,82.38L535.26,272.81,460.37,369l-74.13-95.23-68.82,100.3-63.26-81.26L185.29,393.23l-57.35-73.67L37.11,451.94,134.6,577.18l68.88-100.39,57.35,73.67,1.43-2.08a53.4,53.4,0,0,1,1.07-6.25,76,76,0,0,1,5.1-14.6q1.75-3.8,3.78-7.48a118.32,118.32,0,0,1,25.37-32.15q3-2.6,6.21-4.94a68.76,68.76,0,0,1,6-3.91l19.82-28.89,18.64,23.94a35.09,35.09,0,0,1,6.75,3.28q1.28.8,2.47,1.7A28.31,28.31,0,0,1,373,472.44a29,29,0,0,1,19.46,4.82,23.66,23.66,0,0,1,9.73,13,21.35,21.35,0,0,1,.31,10.53,44.52,44.52,0,0,1,12.72-3.37l1-.1L461.08,432Z" transform="translate(-30.03 -263.13)"/><path class="cls-4" d="M611.1,441.34a30.2,30.2,0,0,1,7.45,1.51,26,26,0,0,1,12.58,8.89,21.24,21.24,0,0,1,4.34,12.44,24.75,24.75,0,0,1-.29,4.15,31.3,31.3,0,0,1-.64,3.12l2.24,2.87a33.51,33.51,0,0,1,8.14,2.72A25.92,25.92,0,0,1,658.77,493a24.4,24.4,0,0,1,.72,10.53l7.72,9.91,65.25-95.11-69.72-89.56-65.25,95.11Z" transform="translate(-30.03 -263.13)"/><path class="cls-5" d="M615.55,442a29.93,29.93,0,0,1,3,.85q1.16.39,2.27.87L605.2,423.66l57.88-84.37,61.66,79.2-57.88,84.37-8.34-10.72q.13.41.25.82a24.6,24.6,0,0,1,1,5.8l7.29,9.37L728.6,418.4,662.91,334l-61.57,89.74Z" transform="translate(-30.03 -263.13)"/><path class="cls-5" d="M635.36,462.4q.09.89.1,1.79a24.86,24.86,0,0,1-.16,3.2l6.5,8.35a32.59,32.59,0,0,1,3.11,1.32,28.84,28.84,0,0,1,3.33,1.91Z" transform="translate(-30.03 -263.13)"/><path class="cls-2" d="M665.27,394.57q6.49,0,10.09,7.6t3.6,21.39q0,13.7-3.54,21.37t-9.82,7.67q-6.53,0-10.14-7.63t-3.61-21.41q0-13.7,3.58-21.35T665.27,394.57Zm.24-4.43a22.76,22.76,0,0,0-9.75,2.13,26.25,26.25,0,0,0-8.31,6.25,30.16,30.16,0,0,0-6.35,10.93,43.69,43.69,0,0,0-2.18,14.12A44.71,44.71,0,0,0,641,437.71a30.41,30.41,0,0,0,6.21,10.91,25.59,25.59,0,0,0,8.28,6.23,23.39,23.39,0,0,0,19.4,0,26,26,0,0,0,8.31-6.14,31.12,31.12,0,0,0,6.42-11.06,43.19,43.19,0,0,0,2.21-14.08,44.48,44.48,0,0,0-2.09-14.05,31,31,0,0,0-6.16-10.91,25.67,25.67,0,0,0-8.31-6.36A22.92,22.92,0,0,0,665.52,390.13Z" transform="translate(-30.03 -263.13)"/><path class="cls-4" d="M504.39,457.08a37.58,37.58,0,0,1,13.29-4.15,32.77,32.77,0,0,1,10.44.46,31,31,0,0,1,8.91,3.33,26.34,26.34,0,0,1,11.19,11.53l1.17.42,50-64.26-65.25-95.11-69.72,89.56Z" transform="translate(-30.03 -263.13)"/><path class="cls-5" d="M507.24,455.71q1.48-.63,3-1.14L472.16,399l61.66-79.2,57.88,84.37L545.38,463.7a24.38,24.38,0,0,1,1.84,2.68l48.33-62.08L534,314.56,468.3,398.94Z" transform="translate(-30.03 -263.13)"/><path class="cls-2" d="M523.87,371.1h3.51q10.07,0,14.31,6.45t4.24,21.52q0,15.25-4.09,21.84t-13.66,6.58h-4.32Zm-18-4.43v4.26q3.93,0,5,1.4t1.09,6.5v40.88q0,5.14-1.07,6.52t-5,1.37v4.26q2.6-.22,5.19-.33t5.23-.11q3.05,0,8.12.22t7,.22q13.33,0,20.38-8.33t7.05-24.07q0-15.38-7.38-24.07T531,366.67q-2.14,0-7.88.18t-9.31.18q-2.32,0-4.26-.09T505.84,366.67Z" transform="translate(-30.03 -263.13)"/><path class="cls-4" d="M374.22,472.34a29,29,0,0,1,18.28,4.92A25.19,25.19,0,0,1,399.3,484l57.76-84.19-69.72-89.56-65.25,95.11Z" transform="translate(-30.03 -263.13)"/><path class="cls-5" d="M378.15,472.33a29.2,29.2,0,0,1,4.43.64l-52.78-67.8,57.88-84.37L449.34,400,395,479.19a25.05,25.05,0,0,1,2.27,2.22l55.92-81.5-65.69-84.38-61.57,89.74Z" transform="translate(-30.03 -263.13)"/><path class="cls-2" d="M367.16,373.47l-1.44,18h2.95q.91-8,3.09-10.75t7.54-2.77h5.75v48.59q0,5.45-1.12,6.67t-5.09,1.22h-.63v4.26q4.28-.27,7.51-.4t5.51-.13q2.21,0,5.38.13t7.24.4v-4.26h-.77q-4,0-5-1.22t-1-6.67V377.9h5.72q5.47,0,7.59,2.75t3.07,10.77h2.95l-1.44-18Z" transform="translate(-30.03 -263.13)"/><polygon class="cls-4" points="225.24 66.18 159.98 161.29 229.7 250.85 294.96 155.74 225.24 66.18"/><path class="cls-5" d="M255.61,339.86l61.66,79.2-57.88,84.37-61.66-79.2Zm-.17-5.28-61.57,89.74,65.69,84.38L321.13,419Z" transform="translate(-30.03 -263.13)"/><path class="cls-2" d="M257.8,395.14q6.49,0,10.09,7.6t3.6,21.39q0,13.7-3.54,21.37t-9.82,7.67q-6.52,0-10.14-7.63t-3.61-21.41q0-13.7,3.58-21.35T257.8,395.14Zm.25-4.43a22.78,22.78,0,0,0-9.75,2.13,26.25,26.25,0,0,0-8.31,6.25A30.19,30.19,0,0,0,233.63,410a43.7,43.7,0,0,0-2.17,14.12,44.71,44.71,0,0,0,2.1,14.14,30.43,30.43,0,0,0,6.21,10.91,25.58,25.58,0,0,0,8.28,6.23,23.39,23.39,0,0,0,19.4,0,26,26,0,0,0,8.31-6.14,31.14,31.14,0,0,0,6.42-11.06,43.17,43.17,0,0,0,2.21-14.08,44.48,44.48,0,0,0-2.09-14.05,31,31,0,0,0-6.16-10.91,25.66,25.66,0,0,0-8.31-6.36A22.92,22.92,0,0,0,258,390.7Z" transform="translate(-30.03 -263.13)"/><polygon class="cls-4" points="760.93 94.56 691.21 184.11 756.47 279.23 826.18 189.67 760.93 94.56"/><path class="cls-5" d="M790.62,368.23,848.5,452.6l-61.66,79.2L729,447.43Zm.17-5.28L725.1,447.34l61.57,89.74,65.69-84.38Z" transform="translate(-30.03 -263.13)"/><path class="cls-2" d="M805.67,419.41a30.25,30.25,0,0,0-7.4-3.9,22.72,22.72,0,0,0-7.54-1.29q-12.35,0-19.68,9.4t-7.33,25.18q0,14.85,6.82,23.54T789,481a24.28,24.28,0,0,0,17.08-6.61l4.95,3.19V461a5,5,0,0,1,.67-3.1q.66-.75,3.09-1v-3.95l-7.26.33q-2.56.11-4.17.11-1.82,0-4.63-.11l-7.72-.33v4q.42,0,1.23,0,7.54.22,7.54,5.1v8.29a5.14,5.14,0,0,1-2.28,4.5,11.51,11.51,0,0,1-6.56,1.57,11.38,11.38,0,0,1-10.81-6.7q-3.44-6.69-3.44-21.1,0-14.94,3.82-22.39T792,418.79a12.06,12.06,0,0,1,10.07,4.74q3.68,4.74,4.21,13.66h3.09q0-1.55-.05-3.15t0-4.21V415.51h-2.81Z" transform="translate(-30.03 -263.13)"/><polygon class="cls-4" points="99.01 92.91 33.76 188.02 103.47 277.58 168.73 182.47 99.01 92.91"/><path class="cls-5" d="M129.38,366.58,191,445.78l-57.88,84.37L71.5,450.95Zm-.17-5.28L67.64,451l65.69,84.38,61.57-89.74Z" transform="translate(-30.03 -263.13)"/><path class="cls-2" d="M102.89,413.41v4.26q4,.09,5.05,1.15t1.05,5.36v42.61q0,4.92-1.11,6.18t-5,1.35v4.26q4.07-.27,7.14-.4t5.07-.13q2.1,0,5.07.13t6.79.4v-4.26q-4-.09-5-1.09t-1-6.36V446.09h19.89v20.35q0,5.19-1.05,6.54t-5,1.35v4.26q4-.27,7-.4t5.1-.13q2.1,0,5.07.13t6.86.4v-4.26q-3.89,0-5-1.33t-1.07-6.56V425.56q0-5.19,1.05-6.54t5-1.35v-4.26q-3.82.27-6.86.4t-5.28.13q-2.39,0-5.39-.13t-6.54-.4v4.21q3.89.09,5,1.42t1.07,6.52v16H120.92V424.36q0-4.52,1.05-5.54t5-1.2v-4.21q-3.79.27-6.81.4t-5.33.13q-2.39,0-5.35-.13T102.89,413.41Z" transform="translate(-30.03 -263.13)"/></svg>