<svg id="Layer_1" data-name="Layer 1" xmlns="http://www.w3.org/2000/svg" viewBox="0 0 405.55 350.08"><defs><style>.cls-1{fill:#010101;}.cls-1,.cls-2,.cls-3,.cls-4,.cls-5,.cls-6,.cls-7{fill-rule:evenodd;}.cls-2{fill:#bee3d5;}.cls-3{fill:#ed2224;}.cls-4{fill:#f6eb16;}.cls-5{fill:#fff;}.cls-6{fill:#e0bc2d;}.cls-7{fill:#f37e80;}</style></defs><title>Hotdog</title><polygon class="cls-1" points="269.61 120.41 299.39 170.15 319.93 139.92 358.99 205.14 405.55 136.63 362.27 64.35 341.72 94.58 302.66 29.36 278.46 64.97 239.55 0 203.72 52.72 168.25 0.53 129.34 65.5 105.14 29.89 66.2 94.91 44.82 63.45 1.53 135.72 48.09 204.24 87.03 139.22 108.41 170.68 147.32 105.71 171.53 141.32 204.06 87 236.28 140.79 260.44 106.23 269.61 120.41"/><path class="cls-2" d="M257.75,293.51l24.2,35.61,32.66-54.53,32.34,54L371.15,293l3.33,5.56a8.4,8.4,0,0,0,3.45,3.2l-2.13.05,7.25,3.39q.62.49,1.25,1a22,22,0,0,0,2.66,1.73h0a12.29,12.29,0,0,0,2.11.91l.23.25-6.89-3.29,5.36,8.95-3.6,0,25.89,43.24,20.54-30.23,39.06,65.22,43.72-64.34-40.69-67.95-20.54,30.23-39.06-65.22-24.2,35.61L350,196.3l-35.71,52.54-35.35-52L240,261.8l-24.2-35.61-38.94,65-21.38-31.46L114.8,327.7,158.52,392l38.94-65,21.38,31.46Z" transform="translate(-110.54 -192.05)"/><path class="cls-3" d="M412.39,241.24l-33.32,49,31.18,52.06,33.32-49ZM349.53,211.9l-33.32,49L347.39,313l33.32-49Zm-70.16.53L248.18,264.5l33.32,49,31.18-52.06Zm-63.11,29.36-31.18,52.06,33.32,49,31.18-52.06Zm-60.32,33.56-31.18,52.06,33.32,49,31.18-52.06Zm316.31.9-33.32,49,31.18,52.06,33.32-49Z" transform="translate(-110.54 -192.05)"/><path class="cls-4" d="M412.31,244.12l29.42,49.12-31.39,46.19-29.42-49.12Zm.07,3-29.46,43.35,27.66,46.18L440,293.35Zm-63-29.49L319.9,261l27.66,46.18L377,263.86Zm-69.83.53-27.66,46.18,29.46,43.35L309,261.56Zm69.91-3.42,29.42,49.12L347.48,310.1,318.05,261Zm-70,.53,31.39,46.19-29.42,49.12L250,264.44Zm-63,32.24-27.66,46.18,29.46,43.35,27.66-46.18ZM156.1,281.12l-27.66,46.18,29.46,43.35,27.66-46.18Zm60.24-36.45,31.39,46.19L218.31,340,186.92,293.8ZM156,278.24l31.39,46.19L158,373.55,126.6,327.36ZM472.08,282l-29.46,43.35,27.66,46.18,29.46-43.35Zm.08-2.89,29.42,49.12-31.39,46.19-29.42-49.12Z" transform="translate(-110.54 -192.05)"/><path class="cls-5" d="M411.51,272.72c-7,0-12.69,8.2-12.69,18.32s5.68,18.32,12.69,18.32,12.69-8.2,12.69-18.32S418.52,272.72,411.51,272.72Zm-66.91-27v30.87h2.06q4.58,0,6.53-3.6t2-12q0-8.25-2-11.78t-6.84-3.53Zm66.83,29.43q-3,0-4.71,4.19T405,291q0,7.55,1.73,11.72t4.84,4.17q3,0,4.69-4.2T418,291q0-7.55-1.72-11.71T411.44,275.17ZM336,243.31q.84.1,1.77.15t2,0q1.71,0,4.45-.1t3.76-.1a11.5,11.5,0,0,1,9.78,4.76q3.53,4.76,3.53,13.18,0,8.62-3.37,13.18T348.21,279q-.94,0-3.36-.12t-3.88-.12q-1.26,0-2.5.06T336,279v-2.33q1.89,0,2.41-.75a7.64,7.64,0,0,0,.51-3.57V250q0-2.82-.52-3.56t-2.4-.76ZM269.72,247h22.83l.69,9.83h-1.41q-.45-4.39-1.47-5.9t-3.63-1.5H284v26.6q0,3,.49,3.65t2.4.67h.37v2.33q-1.94-.15-3.46-.22t-2.57-.07q-1.09,0-2.63.07t-3.59.22v-2.33h.3q1.89,0,2.43-.67t.54-3.65v-26.6h-2.75a4.05,4.05,0,0,0-3.6,1.52q-1,1.52-1.48,5.89H269Zm-52.26,30.79q-3,0-4.71,4.19T211,293.69q0,7.55,1.73,11.72t4.84,4.17q3,0,4.69-4.2t1.69-11.7q0-7.55-1.72-11.71T217.47,277.82Zm.12-2.43a9.79,9.79,0,0,1,4.68,1.15,12.61,12.61,0,0,1,4,3.48,17.76,17.76,0,0,1,2.94,6,27.65,27.65,0,0,1,1,7.69,26.79,26.79,0,0,1-1.06,7.71,17.77,17.77,0,0,1-3.07,6.06,12.7,12.7,0,0,1-4,3.36,9.9,9.9,0,0,1-9.27,0,12.52,12.52,0,0,1-4-3.41,17.39,17.39,0,0,1-3-6,27.78,27.78,0,0,1-1-7.74,27.13,27.13,0,0,1,1-7.73,17.19,17.19,0,0,1,3-6,12.85,12.85,0,0,1,4-3.42A9.74,9.74,0,0,1,217.58,275.4Zm-74.14,31.36q1.73.15,3.14.22t2.56.07q1.11,0,2.55-.07t3.25-.22v2.31a3.65,3.65,0,0,0-2.38.66q-.5.56-.5,3v9.44h9.5v-8.79q0-2.84-.51-3.57t-2.37-.78v-2.31q1.69.15,3.13.22t2.57.07q1.07,0,2.52-.07t3.28-.22v2.33q-1.88,0-2.38.74a7.75,7.75,0,0,0-.5,3.58v22.38q0,2.86.51,3.59t2.37.73v2.33q-1.86-.15-3.28-.22t-2.42-.07q-1,0-2.44.07t-3.36.22V340.1q1.88,0,2.38-.74a7.75,7.75,0,0,0,.5-3.58V324.64h-9.5V336q0,2.94.48,3.48a3.57,3.57,0,0,0,2.41.59v2.33q-1.83-.15-3.24-.22t-2.42-.07q-1,0-2.42.07t-3.41.22V340.1a3.1,3.1,0,0,0,2.39-.74q.53-.69.53-3.39V312.66q0-2.35-.5-2.94a3.47,3.47,0,0,0-2.41-.63ZM479.27,310l.4-2.14H481v7.84q0,1.43,0,2.31t0,1.72h-1.48a14.68,14.68,0,0,0-2-7.47,5.52,5.52,0,0,0-4.81-2.6q-3.67,0-5.5,4.08T465.42,326q0,7.89,1.64,11.55t5.16,3.66a5,5,0,0,0,3.13-.86,3,3,0,0,0,1.09-2.46v-4.54q0-2.67-3.6-2.79l-.59,0v-2.18l3.69.18q1.34.06,2.21.06t2-.06l3.47-.18v2.16a2.24,2.24,0,0,0-1.48.56,3.05,3.05,0,0,0-.32,1.7v9.1l-2.36-1.75a12,12,0,0,1-3.79,2.73,10.73,10.73,0,0,1-4.37.89,10.18,10.18,0,0,1-8.83-4.76q-3.26-4.76-3.26-12.89,0-8.64,3.5-13.78a10.85,10.85,0,0,1,9.4-5.14,9.63,9.63,0,0,1,3.6.7A13.91,13.91,0,0,1,479.27,310Z" transform="translate(-110.54 -192.05)"/><path class="cls-3" d="M403.82,305.8a.85.85,0,0,0,.45.76,3.44,3.44,0,0,0,.49.28Q404.28,306.36,403.82,305.8Z" transform="translate(-110.54 -192.05)"/><path class="cls-1" d="M324.95,460.38a10.91,10.91,0,0,1-4.63-.25,5.75,5.75,0,0,1-1.47-.61,5.38,5.38,0,0,1-1-.75l-.59.81q-.87,1.23-1.68,2.5-.71,1.12-1.38,2.27T313,466.92q-.53,1.2-1,2.43-.87,2.33-1.55,4.73a6.12,6.12,0,0,1-4.85,4.66,7,7,0,0,1-1.43.11,5,5,0,0,1-1.54-.27,6.1,6.1,0,0,1-2.86,1.28,11.19,11.19,0,0,1-7.89-1.56,10,10,0,0,1-2.63-2.25,16.27,16.27,0,0,1-1.06,1.41,20.51,20.51,0,0,0,7.89,3.74c.82.21,1.79.44,1.79.44s-.7,1.61-1.23,2.66c-1,1.93-1.68,2.31-3.46,3.94a1.89,1.89,0,0,0-.76,1.38c-.32,1.82-.38,3.84-.72,5.89-.56,3.39-1.92,7.18-2.23,9.7a1.07,1.07,0,0,0,.42,1.11,3.08,3.08,0,0,0,1.7,0,2.26,2.26,0,0,0,.74-1.19c.43-1.4.75-3.21,1.27-4.77a48,48,0,0,1,4.22-8.35c1.72-2.63,3.87-5.19,5.3-7.77a6,6,0,0,1,1.44-1.85,8.56,8.56,0,0,1,1.78-.17c.54-.09,1.09-.34,1.65-.48a6.82,6.82,0,0,1,1.52-.17c2.53-.05,3.09-.23,5.1-2,5.05-4.53,7.75-7.36,9.44-13.77A34,34,0,0,0,324.95,460.38Z" transform="translate(-110.54 -192.05)"/><path class="cls-1" d="M274.77,479.91a9.52,9.52,0,0,1-2.78-2.84,10.05,10.05,0,0,1-1.1-2.38q-.15-.48-.27-1l-.4.73c-.19,1.68-.38,3.23-.59,4.19-.61,2.88-2.2,6.86-3.25,10.52-1,3.41-2.11,10.65-3.15,15.29-.12.51-.13.87.38,1.07,1.25.51,1.84-2.28,2.2-3a22.42,22.42,0,0,1,2.26-3.06c1.36-1.85,1-2.61,1.4-5.37C270,490.3,272.43,484.51,274.77,479.91Z" transform="translate(-110.54 -192.05)"/><path class="cls-1" d="M384.4,329c-.31-2.24.73-5.61,1.35-7.16a26,26,0,0,1,2.47-4.37.83.83,0,0,1,.66,0,60.93,60.93,0,0,1,6.5,4c.24.89-1.64,4.75-2.27,5.81-.9,1.5-2.55,4-4.25,4.27-1.36.24-3.53-.28-4.06-1.27A4.32,4.32,0,0,1,384.4,329ZM273.56,456.26q.58-1.12,1.25-2.2a27.53,27.53,0,0,1,4.84-5.81h0a20.7,20.7,0,0,1,2-1.6,17.92,17.92,0,0,1,2.06-1.25,15.64,15.64,0,0,1,4.48-1.53,10.12,10.12,0,0,1,6,.66h0a7.71,7.71,0,0,1,2.09,1.38,5.93,5.93,0,0,1,.94,1.13,5.36,5.36,0,0,1,.62,1.35,6,6,0,0,1,.24,1.58,8.55,8.55,0,0,1,0,1,4.76,4.76,0,0,1,1,1.81,4.71,4.71,0,0,1,.18,1.39,8.22,8.22,0,0,1-.31,2,17.69,17.69,0,0,1-.57,1.74,25.56,25.56,0,0,0-1.29,5.63q-.1.78-.16,1.55t-.05,1.37a11,11,0,0,0,.08,1.28,5.57,5.57,0,0,0,.2,1,1.72,1.72,0,0,0,.35.63,1.77,1.77,0,0,0,.26.23l.21.14.28.07c.38.09,1.09.22,1.43.28.17-1.41.42-3,.67-4.46a72.86,72.86,0,0,1,2.15-9.28q.69-2.27,1.61-4.46a35.94,35.94,0,0,1,2-4q.48-.84,1-1.64a14.38,14.38,0,0,1,1.23-1.54,9.46,9.46,0,0,1,1.72-1.49,6.46,6.46,0,0,1,2.45-1,5.84,5.84,0,0,1,2.9.23,4.56,4.56,0,0,1,2.64,2.21l.49-.48a50.14,50.14,0,0,1,4.87-4.17q.44-.33.9-.63c.23-.15.48-.3.73-.43.47-1.75.4-2.71.63-7.25.24-4.73,1-11.61.88-14.71-.06-2.27-.24-4.93-.24-4.93a.4.4,0,0,0,.16,0s0-.07.05-.1.12-.07.2-.05.36.28.51.5a14,14,0,0,0,.95,1.12,21.45,21.45,0,0,1,2.87,4.71,10.93,10.93,0,0,0,6.07,5.52c4.3,1.68,6.74-2.91,8.43-7.11.53-1.31.92-2.63,1.43-3.95,1.25-3.21,3.23-6.46,4.47-9.57a13.82,13.82,0,0,1,2.13-4.11c.37-.45.84.08,1.51.4,1.05.5,1.71.17,2.68-.51,1.32-.94,1.54-2.16,2.49-4a1.81,1.81,0,0,1,.72-.87c.5-.22,1.23.21,1.8.08a6,6,0,0,0,1.37-1.95,6.22,6.22,0,0,1,.49-1.67,7,7,0,0,0,.88-1.29c.11-.46-.23-1.1-.08-1.46s.47-.37.72-.64a2,2,0,0,0,.09-2.35,1.8,1.8,0,0,1-.27-1.5c.08-.58,4.75-11.31,5.11-11.74a4.8,4.8,0,0,1,.58-.6c.32-.27.72-.51,1-.82a3.19,3.19,0,0,0,.94-1.76c0-.39-.08-.79,0-1.15a3.76,3.76,0,0,1,.78-1.4c.62-.85,3.84-10.13,5.92-15.1,1.12-2.66,2.6-5,3.82-7.64.77-1.65,1.43-3.4,2.08-5.12.15-.4.2-.45.47-.48.72-.08,1.14.28,1.82.43a7.13,7.13,0,0,0,3.15-.54,8.74,8.74,0,0,0,2.2-2.29,41.06,41.06,0,0,0,5.43-10.91c.15-.45.21-.53.57-.45a11.71,11.71,0,0,1,2.64,1.18c3.59,2,4.67,2.27,8.86,2.74,2.39.27,2.81.19,4.68-1a7,7,0,0,0,3.6-5.72,7.9,7.9,0,0,0-1.72-5.87,17.27,17.27,0,0,0-4.35-4.08c-1.21-.7-5.53-2.52-8.34-3.61s-1.29-1.71-.65-4.7c.18-.84-.23-1.31-1-1a4.21,4.21,0,0,0-1.54,1.14c-.29.36-.5.76-.82,1.08s-.48.39-.67.6-.4.66-.67.84a4.32,4.32,0,0,1-2-.15,5.38,5.38,0,0,1-2-1.16c-.23-.37.69-3.57.48-4.08a.88.88,0,0,0-1.17-.42c-.64.28-1.81,2.29-2.27,2.39s-1.81-.69-2.4-1.11c-5.12-3.63-7.5-7.48-13.08-4.83-2.55,1.21-3.21,3.1-2.88,6.21.4,3.74,3.58,7.2,6.72,9.78,1.2,1,3,2.26,3,2.26s-1.37,3-2.35,4.84c-.51.94-.92,1.56-1.33,2.29-2.15,3.76-3.43,7-1.8,10.63a4.28,4.28,0,0,0,1.17,1.54c1.58,1.39,2,1.41,1.44,2.16s-3.67,8.23-4,9.34c-.12.45-.21.85-.32,1.27-.26,1-4.85,11.81-5.41,12.73a10.51,10.51,0,0,0-.72,1.27,17.42,17.42,0,0,1-1,2.39c-.5.77-.83.88-.8,1.68,0,.28,0,.32-.35.33a3.18,3.18,0,0,0-2.69,2.19c-.09.54-.05,1.25-.15,1.86-.21,1.31-1.95,4.4-2.38,5.23a75.26,75.26,0,0,0-3.38,7.78c-.57,1.7-.71,2.2-2.17,2.25a5.11,5.11,0,0,0-1.32,0c-.31.11-.55.42-.85.56a4.36,4.36,0,0,1-1,.16,5.06,5.06,0,0,0-1.83,1.19c-.53.8,0,1.35.08,2.7.13,1.8-.81,3.12-1.79,4.48-.57.79-1,1.68-1.55,2.52a53.72,53.72,0,0,1-4.69,5.41c-1.46,1.33-3,2.57-4.53,3.82a5.75,5.75,0,0,1-.91.64c-.38.2-.43.22-.5.16a1.94,1.94,0,0,1-.43-.81,17.5,17.5,0,0,0-2.3-3.17c-2.22-2.56-5.42-6.42-6.28-7.16a15.62,15.62,0,0,1-1.43-1.27c-.52-.58-.79-1.22-1.59-2.07a22.31,22.31,0,0,0-1.67-1.54s1-5.63,1.35-9.6c.31-3.31.21-5.47.4-8s.66-5.4.64-8c0-1.26-.14-2.46-.16-3.69,0-2.65.64-6.77.88-10.37a50.54,50.54,0,0,1,.88-7,4.58,4.58,0,0,1,1.42-2c.64-.37,1.59-.24,2.39-.48a15,15,0,0,0,3.67-3,16.53,16.53,0,0,0,3.64-7.93c.34-3.74,0-7.87-3.52-9.43a1.39,1.39,0,0,0-.36-.12c-.17,0-.19-.08-.19-.51,0-.92-.08-1.84-.14-2.76-.28-4.5-.39-10.38-2.87-14.67-.86-1.48-4.33-5-6.28-5.49-.3-.07-.59-.08-1-.16a29.8,29.8,0,0,1-4.51-2.1s.58-.65.93-1.16a29.68,29.68,0,0,0,2-5.17c.47-1.54,1-2.94-.29-3.5-1.07-.46-1.24.16-2.21.52-.52.19-1-.13-1.5-.79s-.53-.76-1.21-.6a1.16,1.16,0,0,0-.51.24c-.49.42-.54,1-1,.83a1.47,1.47,0,0,1-.63-.47c-.5-.57-.73-1.1-1.44-.76a1.6,1.6,0,0,0-.83,1.93,5.75,5.75,0,0,0,.29.62,30.78,30.78,0,0,1,.59,5.4c-.09,1.88-1,1.54-2.74,1.11-1.59-.38-5.2.56-6.8,1.19a41.46,41.46,0,0,0-9.23,6.12A30,30,0,0,0,291.3,307a54.41,54.41,0,0,0-2.71,6.67c-.23,1-.49,2.69-1.22,3.24a5.67,5.67,0,0,1-1.24.54,8.3,8.3,0,0,0-2.08,1.26,28.16,28.16,0,0,1-2.33,1.79c-1.16.73-2.55,1.21-3.58,2-.42.32-.79.69-1.19,1-1.21,1-5.06,2.76-7.4,4.37-6.34,4.4-9.92,13.68-11.85,20.76a20.29,20.29,0,0,0-.77,5.57.71.71,0,0,1-.42.75,8.59,8.59,0,0,0-2.43,2.46c-.29.44-.52.86-.82,1.25a63.9,63.9,0,0,1-6.81,3.82c-3.21,1-3.93,1.36-6.49,4.44-1.2,1.45-6,8.38-6.36,9.11a17.66,17.66,0,0,0-1.44,5.24c.05,1,5.39,10.06,7.5,11.86a13.87,13.87,0,0,0,2.73,1.71c2.76,1.4,7.32,3.76,7.83,4.22a2.9,2.9,0,0,1,.56.64c.4.65,1.17,7.43,1.51,7.79.54.57.78.51,1.1,1.41.53,1.48-.16,4.82-.39,6.29a86.42,86.42,0,0,0-.16,9.08c.06.25.13.5.19.75l.29-.2a5.51,5.51,0,0,1,2-.79,5.21,5.21,0,0,1,2.5.17,6,6,0,0,1,1.67.84,5.6,5.6,0,0,1,1.28,1.21,5.14,5.14,0,0,1,1.06,2.93,7.33,7.33,0,0,1-.34,2.39,12,12,0,0,1-.4,1.14q-.18.43-.38.86-2,4.45-3.71,9a9.18,9.18,0,0,0,.54.83,37.46,37.46,0,0,1,2.81,4.15c.22,1.22.4,1.37,1.89,2.27a27,27,0,0,1,2.89,1.73c.32.27.58.59.88.87a18.88,18.88,0,0,0,3.7,2.14C271.06,455.19,272.36,455.73,273.56,456.26Z" transform="translate(-110.54 -192.05)"/><path class="cls-5" d="M308.21,329.92c.1,0,.06.2,0,.38-.3.92-2.34,2.22-3.2,2.67-2.92,1.52-6.32.79-8.85-1.59-2.36-2.23-2.18-6.41-1-9.88a5.79,5.79,0,0,1,.48-1.11c.35-.62.9-1.31,1.24-1.92s.84-1.95,1.51-2.23c.07,0,.14,0,.16,0s0,.14,0,.23a16.92,16.92,0,0,1-.83,1.52,8.37,8.37,0,0,0-1,5c.75,3.65,4.75,6.84,8.31,7.06C306.11,330.15,307.4,329.86,308.21,329.92Zm16.23-1.27a.35.35,0,0,0,.16,0s0-.07.05-.11.12-.07.2-.05.24.17.3.32a8.23,8.23,0,0,1,.32,1.91c.57,3.45,4.09,5.19,6.93,6.25a3.59,3.59,0,0,0,1.07.27,11.37,11.37,0,0,0,2.23-.18,18.54,18.54,0,0,1-2.24,1.79c-1.91,1.16-5.19,1.1-6.64-.09a7.42,7.42,0,0,1-2.7-4.9,11,11,0,0,1,0-2.82c.06-.34.16-.61.23-1.12S324.43,328.65,324.43,328.65Zm-35.27,11.17a.76.76,0,0,1,.54-1,.56.56,0,0,1,.43,0,3.16,3.16,0,0,1,1.22,1.22,3.45,3.45,0,0,1-.58,1.63C290.24,342.5,289.68,340.86,289.16,339.82Zm4.23,3-.39,1c-.16.4-.19.44-.32.46-.77.09-1-.64-.87-1.26.21-1.35.36-2,1.27-1.38.36.26.52.39.49.68A2.23,2.23,0,0,1,293.4,342.83Zm6.22,2.45a.25.25,0,0,1,0-.25c.15-.25,1.36.33,1.43.41a.28.28,0,0,1,0,.38C300.84,346,300.12,345.72,299.62,345.29Zm-4-.53-.59,1.87h-.19c-.09,0-.12,0-.37-.22-.59-.48-.61-.75-.46-1.56s.27-1.77.84-1.51c.32.15.83.56.89.89C295.8,344.29,295.79,344.35,295.66,344.75Zm6.51,1.39h.16v-.32l1.75.16a4.88,4.88,0,0,1,0,.64c-.1,1-.6.88-1.25.53-.23-.13-.47-.21-.57-.52A2.21,2.21,0,0,1,302.16,346.15Zm13.63.16H317l-.16,1.59h-1.91a4.23,4.23,0,0,1,0-.64,1.48,1.48,0,0,1,.25-.65C315.29,346.33,315.36,346.3,315.79,346.3Zm-9.7-.28,1.65.12-.42,1.91-1.38-.12c-.43,0-.49-.05-.63-.17-.39-.31-.38-.72.09-1.44C305.59,346,305.66,346,306.08,346Zm4.83,2h-2.23l.16-1.75h2.23Zm1.33-1.15c.07-.3.23-.56.37-.6a4.62,4.62,0,0,1,1.33.16V347a1.72,1.72,0,0,1,0,.43.69.69,0,0,1-.63.65,5.61,5.61,0,0,1-.76,0v-.16h-.32v-.51A1.6,1.6,0,0,1,312.24,346.9Zm6.54-.6h.88a2.77,2.77,0,0,1,0,.64,4.59,4.59,0,0,1-.42,1.27h-1.33a6.29,6.29,0,0,1,0-.9,1.6,1.6,0,0,1,.24-.69C318.32,346.34,318.38,346.3,318.78,346.3Zm-22.66,1.34c0-1.17.35-2.77,1.17-2.45a.89.89,0,0,1,.58,1.11,5.45,5.45,0,0,0-.32.92c-.11.84.31,1.38-.38,1.14a3.35,3.35,0,0,1-.73-.4C296.28,347.87,296.11,347.76,296.12,347.64Zm25.41-1.34h.67a14.69,14.69,0,0,1-.21,1.6c-.13.57-.24.9-.63.75-1-.37-.85-.78-.51-1.71a1.88,1.88,0,0,1,.21-.44C321.18,346.32,321.23,346.3,321.53,346.3Zm2.28.8h.46l-.16,1.91H323a3.73,3.73,0,0,1,0-.51,2.4,2.4,0,0,1,.36-1C323.56,347.14,323.61,347.1,323.81,347.1Zm-23.55,1.15-.43,1.26c-.14.41-.16.45-.25.46a1.32,1.32,0,0,1-1.08-.75,4.17,4.17,0,0,1,.31-2c.15-.4.18-.45.3-.46.39,0,.68.22,1.15.57a.32.32,0,0,1,.17.37A2.87,2.87,0,0,1,300.26,348.25Zm17.17,1.23h1.43l-.16,1.27h-1.27Zm-2.86,1.43a5.65,5.65,0,0,1,0-.64,4.38,4.38,0,0,1,.35-1c.07-.09.12-.09.52,0l.89.11-.58,1.59Zm6.52-1.11a.42.42,0,0,0,0,.16c0,.09.18,0,.25.07s-.09.72-.17.89-.06.14-.18.16a1.86,1.86,0,0,1-.38,0v-.16h-.48V349.8Zm-7.64-.48a11.42,11.42,0,0,1-.32,1.64c-.1.26-.34.39-.83.42-.31,0-.76,0-.76,0l.16-2.23Zm9.17,1.22.21-.11v.48h.32v.16h.48v.48h-.34a.66.66,0,0,1-.33-.06.61.61,0,0,1-.47-.71C322.52,350.62,322.53,350.59,322.63,350.55Zm-20.08,1.33c0,.06-.16,0-.27,0a3.89,3.89,0,0,1-1.38-.86,6.88,6.88,0,0,1,.8-2.68c.27-.21,1.34.16,1.59.67a.74.74,0,0,1,0,.53c-.11.36-.35.77-.48,1.27A7.94,7.94,0,0,1,302.55,351.87Zm6.11.16h-.92v-1.38l.58-1.16a8.88,8.88,0,0,1,2.28-.16c.16.05.16.3,0,.51a3.49,3.49,0,0,0-.47.65c-.4.82-.14,1.26-.82,1.48A1.72,1.72,0,0,1,308.65,352Zm-4.7-1.2a4.59,4.59,0,0,1,.7-1.67,3.48,3.48,0,0,1,1.88.23c.36.16.4.19.4.28a.65.65,0,0,1,0,.18c-.19.69-1,2.42-1,2.42l-2,.07v-.76A5.37,5.37,0,0,1,304,350.83Zm90.57-49.07a.47.47,0,0,1,.38,0c.61.34-1.18,3.56-1.59,4.22a9.1,9.1,0,0,1-1.7,2.15c-.29.16-.59.13-.69,0-.32-.42,1.6-3.8,3.13-5.86A2,2,0,0,1,394.52,301.76Zm5.15,7.48a8.93,8.93,0,0,1,0-1.06c.08-1,2-3.51,2.86-4.27.2-.17.4-.29.48-.24s-.31,1.46-.56,2.07a13.83,13.83,0,0,1-.87,1.83c-.25.44-1,1.77-1.37,1.83a1.72,1.72,0,0,1-.38,0v-.16Zm-29.12,55.34s7.86-19.73,9.28-22.47a18.46,18.46,0,0,0,.82-1.69c.53-1.34,1-3.29,1.59-4.14.83-1.15,1.43-1.44.24-2.39s-2-1-2.62-2.7a8.83,8.83,0,0,1-.32-5.09c.64-2.51,3.78-7.78,5.16-10.13.56-.95.7-.8,1.58-.24.56.35.74.5.68,1a1.46,1.46,0,0,1-.24.6c-2.28,4.3-3.13,5.65-3.59,10.39a4.16,4.16,0,0,0,1.11,3.82,5.48,5.48,0,0,0,6.5.52c1.59-1.1,3.4-4,4.24-5.77s1.74-4.17,1.74-4.17a10.64,10.64,0,0,1,1.37.59c.27.17.23.51.16,1-.26,1.73-4.24,9.28-5.17,10.55-1.19,1.63-2.72,3-4.54,2.54-.69-.19-1.6-.7-2.18-.91s-.77.2-1.08.75c-.9,1.63-1.72,4.77-2.7,7.16-.85,2-1.86,3.62-2.81,5.63-2.38,5.06-6,15.25-6.65,16.08-.18.23-.25.31-.53.2A21.59,21.59,0,0,1,370.56,364.58Zm-3.21,4.53-.09-1.11a2.29,2.29,0,0,1,.05-.88c.36-1.7,1.92-1.66,3.41-1.17,1.29.42,2,1.09,1.59,2.42a1.55,1.55,0,0,1-.39.7,2.31,2.31,0,0,1-.52.26l-1.1.49a2,2,0,0,1-.52.2.33.33,0,0,1-.17,0s0-.06-.07-.09-.28-.06-.46,0c-.35.06-1.31.28-1.66-.23C367.39,369.59,367.38,369.53,367.34,369.11ZM255.08,388.3a.53.53,0,0,0-.16,0c-.09,0-.05.17-.07.25s-.17.14-.31.07c-.33-.17-.56-.84-.91-1.17-.09-.08-.18-.14-.27-.22a5.06,5.06,0,0,1-.77-.87c-1.17-1.55-1.49-2.38-2.59-3.15s-2.88-1.55-3.66-2.15c-.58-.44.54-1.36,1.31-2,2.31-1.93,7.25-5.59,7.25-5.59s.23,2,.35,4.06C255.45,381.37,255.08,388.3,255.08,388.3Z" transform="translate(-110.54 -192.05)"/><path class="cls-3" d="M298,448.92a6,6,0,0,1,.12,1.06,8.55,8.55,0,0,1,0,1,4.76,4.76,0,0,1,1,1.81,4.71,4.71,0,0,1,.18,1.39c0,.16,0,.32,0,.48a8.07,8.07,0,0,1,2.17-2.87,6.87,6.87,0,0,0,1.29-.78c.1-.13.14-.28.24-.41a5.16,5.16,0,0,1,2.13-.81q.48-1,1-1.91t1-1.64a14.38,14.38,0,0,1,1.23-1.54,9.46,9.46,0,0,1,1.72-1.49,6.46,6.46,0,0,1,2.45-1,5.84,5.84,0,0,1,2.9.23,5,5,0,0,1,1.66.95,15.65,15.65,0,0,0,2.24-5.05c.44-2.84-.93-4.8-3-6.86s-3.61-2.95-6.4-3.22c-1.71-.16-3.51-.46-5.12-.48-.85,0-1.64.06-2.5.06-1.86,0-4.81-.33-5.58-1.1s-1.48-3-2.07-3.42c-.75-.58-1.93-.58-2.7-1.19a3.09,3.09,0,0,1-1.11-2.82c.25-1.58,3.7-2.81,5.09-3s2.92.16,4.3.08c.65,0,1.27-.17,1.94-.24.91-.1,6.44.35,9.5.63a19.08,19.08,0,0,0,3.41,0c.43,0,.5-.06.68-.32.59-.86.78-.53,1.61-.24.51.18.92-.1,1.63-.5a6.48,6.48,0,0,0,3.1-3.9c.88-2.24-.19-5.67-1.66-7.58-2.51-3.24-12.94-8.09-14.32-8.81a28.55,28.55,0,0,0-3.64-1.69,57,57,0,0,1-5.74-2.21c-.8-.67-.61-.81-1.11-1.75-.17-.31-.39-.58-.56-.87a3.27,3.27,0,0,1,.4-3.66,14,14,0,0,1,4-2.55c.36,0,.71,0,1.07,0a14.4,14.4,0,0,0,2.7-1c.47-.18,6.81-.48,10-.48a27.86,27.86,0,0,0,5.08-.87,4.27,4.27,0,0,0,2-5.17,8.36,8.36,0,0,0-1.21-2.1c-.13-.1-.28-.16-.43-.25-.85-.53-.68-1.06-1.14-1.94a3.32,3.32,0,0,0-.48-.64,15.28,15.28,0,0,0-6.68-4.69c-.32-.11-.64-.19-1-.32a12.63,12.63,0,0,1-2-1.17,39.1,39.1,0,0,0-5.64-2.33,14.47,14.47,0,0,1-2.7-.48c-.71-.27-1.35-.75-2.07-1.11a6.33,6.33,0,0,0-2.08-.62,8.6,8.6,0,0,1-1.44-.18c-.37-.11-.72-.31-1.09-.39a3.23,3.23,0,0,0-1,0c-1.87.19-2.31.35-3.06,2.25a20.61,20.61,0,0,0-1.56,5.42c0,.64,0,1.4,0,1.4h.32a.88.88,0,0,0,.32-.08c1.15-.49.87-1.1,2.86-3,2.19-2.12,10.67,1.4,12.88,2.94.88.61,1.71,1.34,2.55,1.83,1.93,1.12,2.22,1.44,3.7,3.92.72,1.2.86,1.48,0,2.69-.64.93-2,.63-3.55.47a14.85,14.85,0,0,0-3.7.1,6,6,0,0,1-1.29.17c-.32,0-.62-.12-1-.17a7.91,7.91,0,0,0-2,.12,48.79,48.79,0,0,0-5.27.8c-1.88.51-4.25,1.46-5.31,2.64-1.48,1.66-2,3-2.39,5.65a3,3,0,0,0,0,.95l.28,3.58a6.52,6.52,0,0,1,1,0,9,9,0,0,1,1.69.8,13.24,13.24,0,0,1,1.27.4,10,10,0,0,1,1.14.9c.23.17.48.3.71.45,1.26.81,2.67,2.86,3.92,3.66,1.5,1,3.79.9,5.81,1.44,1.77.48,3.14,1.53,5.09,3,.86.64,3.35,3,3.76,5a3.48,3.48,0,0,1,.09.91v1.45s-1.33.55-2.47.94a35.92,35.92,0,0,1-5.8.73,27,27,0,0,0-3.35-.09,62.78,62.78,0,0,0-7.48,2.07,8.51,8.51,0,0,0-4.08,2.85,50.25,50.25,0,0,0-3.56,6,4.71,4.71,0,0,0,.24,2c.67,1.78,3,2,4.69,3.74.61.6,1,1.36,1.59,1.91a5.62,5.62,0,0,0,3.23,1.19c.74.06,1.48-.05,2.18,0a4.61,4.61,0,0,1,2,.64,23.68,23.68,0,0,0,2.78,2,10.81,10.81,0,0,0,1.11.32c2.25.64,5.26,3,5.73,5.33.53,2.69-1,4.42-3.31,6a41.44,41.44,0,0,0-4,2.84A11.38,11.38,0,0,0,298,448.92Z" transform="translate(-110.54 -192.05)"/><path class="cls-3" d="M298.19,458.5a22.22,22.22,0,0,0-.73,2.85,4.29,4.29,0,0,0,.33-.35A5.08,5.08,0,0,0,298.19,458.5Z" transform="translate(-110.54 -192.05)"/><path class="cls-6" d="M275.92,406.11a80.29,80.29,0,0,0-.38,8.33c.15,3.35,1.58,10.47,1.44,11.55a3.87,3.87,0,0,0,.18,1.74c.19.88.48,10.89.35,12-.34,2.8-.9,5.52-1.42,8.27a5.45,5.45,0,0,1-.17.75,1.17,1.17,0,0,1-.26.52c-.33.29-1.08-.07-1.17-.42a30.94,30.94,0,0,1,.93-4.17,40.35,40.35,0,0,0,.82-14.17,29.2,29.2,0,0,1-.48-3.66c0-.49,0-1,0-1.43a12.45,12.45,0,0,0-.4-1.91,52.91,52.91,0,0,1-.87-15.65c.07-.53.29-1.59.74-1.69A2.79,2.79,0,0,1,275.92,406.11Zm-2.55-23.54a3.53,3.53,0,0,1,.85,0c.46.1.81,2.42,1.06,3.72a10.11,10.11,0,0,1,.16,3.05c-.12,1.13-.43,2.5-.48,3.17,0,.21,0,.36-.26.4a4.47,4.47,0,0,1-.85,0s0-.34,0-.64a11,11,0,0,1,.32-2.22,12.2,12.2,0,0,0,0-3.4,22,22,0,0,1-.72-3.2C273.4,383,273.37,382.57,273.37,382.57Zm1.75-11.77s-.08-2.09-.08-3.66c0-4.62,2.26-19.65,2.54-20.84.17-.71.35-1.37.55-2.09.54-1.93,2.57-12.26,2.55-13a10.39,10.39,0,0,1,0-2.18c.08-.48.27-1,.32-1.47s0-.82,0-1.24c0-.26.5-2.24.9-2.32a3.48,3.48,0,0,1,.69,0s-.36,3.65-.72,6.68c-.28,2.39-1.95,11.4-2.39,12.88-.21.72-.44,1.44-.64,2.23-.39,1.55-2.15,14.28-2.31,16.46-.25,3.53-.32,8.67-.32,8.67h-.8v-.16Zm1,81.38a27.47,27.47,0,0,1,3.09-3.49c1.58-4.87,2.07-16.43,1.84-19.31-.25-3.06-1-6.21-1.28-9.4s0-7.93-.08-12.19c-.11-5.44-.85-13.24-.71-16.24.06-1.33.2-2.6.16-3.9-.06-1.8-.45-3.67-.64-5.6-.24-2.56-.18-13.71,0-15.33.31-2.84,1.07-5.85,1.11-8.18,0-.49,0-.94,0-1.43,0-.89,1.38-7.53,2-9.7,1.06-3.79,3.09-12.35,3.5-14.79,1-5.91,2-14.26,2-14.26a61.68,61.68,0,0,1-5.92,4,8,8,0,0,0-2.7,1.51,14.17,14.17,0,0,1-1.75,1.35,11,11,0,0,1-1.35.56c-1.84.72-7,4.26-8.43,6-.47.6-.82,1.28-1.27,1.91s-.76.94-1.11,1.43a16.29,16.29,0,0,0-1.35,2.31c-1.41,2.78-4.72,10.94-4.93,15-.07,1.31,0,3.17,0,3.17a13.39,13.39,0,0,0-1.91,1,9.94,9.94,0,0,0-1.55,1.94c-.26.62.49.78,1.29.84.5,0,.88-.06,1.32,0a5,5,0,0,1,1.94,1,7.23,7.23,0,0,1,1.45,3.38,3.07,3.07,0,0,1-.24,1.51,12.71,12.71,0,0,0-.87,2.93c.11.15.39.14.61.37.46.46.43.83,1,.63,1.42-.5,2.55-3.8,2.67-5.2a9.32,9.32,0,0,0-1.05-4.76c-.64-.94-2.11-2.23-2.38-3,0-.12-.07-.24,0-.3s.08,0,.1-.06,0-.11,0-.16.36,0,.65.09c1.17.5,1.26,1.21,2,2.1.2.23.42.44.59.68a4.3,4.3,0,0,1,.44,1c1,2.68,1.39,4.08.35,7a13.25,13.25,0,0,1-2.15,3.5,8.22,8.22,0,0,1-2.55,1c-.59,0-1.34-.57-1.78-.48a6.19,6.19,0,0,0-1.8,1.59c-.59,1.24,0,5.72.08,6.65a69.63,69.63,0,0,1-.21,8.14,35.29,35.29,0,0,0-.42,4.71,7.64,7.64,0,0,0,.74,2.61.94.94,0,0,0,.8,0c.83-.25.62-.7,1.08-1.75a5,5,0,0,1,1.62-1.43c.92-.32,1.15-.14,1,.48s-.44.64-1.43,1.59-.25,1.19.16,2.47,0,2.21,1.05,2.31c.6.06.56-.61,1-1.91A3.81,3.81,0,0,1,263,394.5a.91.91,0,0,1,.85.24c.28.21.26.78-.08,1.19s-.48.24-.72.42a3,3,0,0,0-.64,2.12c.13.76,1,1.63,1.27,2.47a6.42,6.42,0,0,1-.87,2.31c-.72.68-1.67,1.1-2.23,1.75a11,11,0,0,0-.4,3.21,6.36,6.36,0,0,1,.25,2.29s-.08,0-.09.07a1.35,1.35,0,0,0,0,.32h-.86l-.44-4.35a18.93,18.93,0,0,1-2,1.88c-.83.6-1.7.47-2,.77a34.3,34.3,0,0,0-.66,5.8c-.08,3.17-.27,6.53-.16,9.07,0,.12,0,.25,0,.39a5.58,5.58,0,0,1,1.23-.36,5.21,5.21,0,0,1,2.5.17,6,6,0,0,1,1.67.84,5.6,5.6,0,0,1,1.28,1.21,5.14,5.14,0,0,1,1.06,2.93,7.33,7.33,0,0,1-.34,2.39,12,12,0,0,1-.4,1.14q-.18.43-.38.86-1.64,3.68-3.1,7.43a32.3,32.3,0,0,0,5.21,7.3c1,.9,1.15.75,2.47,1.35.37.17.69.37,1,.56a64.86,64.86,0,0,0,7.56,2.15A11.08,11.08,0,0,0,276.08,452.18Z" transform="translate(-110.54 -192.05)"/><path class="cls-7" d="M412.79,320.38c-.25,0-.3,0-.44-.12a.67.67,0,0,1-.27-.88c.25-.54.75-.66,1.15-.16.11.14.13.19.13.49v.67Zm2.38-1.91a1.93,1.93,0,0,1,.89,1.53c.09.44,0,.57-.64.38s-1.2-.75-1-1.49C414.53,318.7,414.86,318.33,415.17,318.47Zm2.32,2.39v1.27h-1.11V321Zm-5.25,1.65c-.36.61-.93.53-1.48.1a1.09,1.09,0,0,1-.11-1.43c.57-.51,1.44.31,1.59,1.05A.47.47,0,0,1,412.24,322.51Zm.64,3.44a2.63,2.63,0,0,1-.38,0,.92.92,0,0,1-.67-.66,1.21,1.21,0,0,1-.06-.49v-.6a4.14,4.14,0,0,1,.66.09,1.29,1.29,0,0,1,.54.3c.22.17.24.23.24.53v.67h-.32ZM391.8,303.67c.22-.37.24-.42.22-.5A.61.61,0,0,0,392,303c-.27-.52-3.08-2.17-4.62-3.32-.7-.52-1.23-1.13-1.83-1.67-2.5-2.25-4.56-2.7-7.64-1.43-2.18.9-2.54,2.7-2.23,5.28A8,8,0,0,0,378,307a56.82,56.82,0,0,0,13,10.56c2,1.22,11.43,6.2,13.28,7,2.47,1.06,6.46,2.47,9.33,1.75,1.05-.27,3.87-2,4.43-3.34a8.23,8.23,0,0,0-.32-6,17.66,17.66,0,0,0-4.85-5.17c-1.33-.85-9.87-4.14-9.87-4.14a12.41,12.41,0,0,1-1.74,2.71,2,2,0,0,1-2.7-.66,3.59,3.59,0,0,1,.06-1.83c.16-.33.42-.64.41-.83,0-.59-3.17-1.62-3.5-1.69-.72-.15-.66.21-1.22,1.25a12.49,12.49,0,0,1-2.39,2.88c-.87.45-.83-.09-1.69-.48-.49-.22-.68-.17-.75-.6C389.31,307.22,390.93,305.17,391.8,303.67Z" transform="translate(-110.54 -192.05)"/><path class="cls-7" d="M280.52,447.49q.55-.45,1.13-.85l.15-.1v0h0a17.91,17.91,0,0,1,1.88-1.12,15.64,15.64,0,0,1,4.48-1.53,10.12,10.12,0,0,1,6,.66h0a7.71,7.71,0,0,1,2.09,1.38,5.93,5.93,0,0,1,.94,1.13,5.37,5.37,0,0,1,.35.63c1.21-1.48,2.73-2.4,4.88-4.06,1.73-1.34,2.71-2,2.89-3.73a4,4,0,0,0-2.11-4.31c-1.62-1-4.55-2-5.37-2.67a5.42,5.42,0,0,0-2.78-1.67c-1.1-.26-2.38-.09-3.58-.32a6.76,6.76,0,0,1-2.4-1c-.89-.65-1.63-1.82-2.59-2.64a25.58,25.58,0,0,0-2.84-1.8c-2-1.33-2.26-3.21-1.47-5.35a44.37,44.37,0,0,1,3.37-5.57,9.61,9.61,0,0,1,2-1.83c1.63-1.09,8.11-3,10.23-3.26,1.74-.22,3.66,0,5.39-.16.49,0,4.31-.64,5.22-1.35.45-.36.18-1.27-.14-2a9.53,9.53,0,0,0-3.2-3.85c-3.28-2.6-3.84-2.68-7.48-3.1-3.1-.36-3.32-1.13-5.56-3.52a10.63,10.63,0,0,0-4.79-3.1,2,2,0,0,0-.94-.11l-2.37.15s-.09-2.37-.13-4.12a19.47,19.47,0,0,1,.34-4.33,9.34,9.34,0,0,1,4.27-5.57,24.16,24.16,0,0,1,6.31-2.07,10.53,10.53,0,0,0,1.6,0c.32-.06.6-.23,1-.32,1-.27,3.34.18,4.69,0,.52-.07.92-.24,1.43-.32a31.07,31.07,0,0,1,4,.16,1.67,1.67,0,0,0,1-.24c.9-.72-.28-2.1-1.33-3.3-2.13-2.43-6.36-4.67-9.64-5.77-1.36-.45-4.94-1.3-6.52-.32-.85.53-2,2.61-2.86,3.1a3.11,3.11,0,0,1-1.43.32c-1.15.09-1.25-.66-1.11-2,.22-2.17,1.43-7.9,3.5-9.18a6.05,6.05,0,0,1,2.87-.49,4.45,4.45,0,0,0,1.31.16c.14,0,.26-.12.4-.17.79-.27,3.25.76,3.93,1.22a10.36,10.36,0,0,0,1,.72,11.39,11.39,0,0,0,2.79.49c1.54.27,6.21,2.48,7.54,3.17,1.69.88,3.46,1.95,4.93,2.54a5.41,5.41,0,0,1,2,1.19c.69.6,2.17,2.44,2.61,1.92.09-.11,0-.34-.07-.61-.27-1.44,2.65-9.23,2.93-9.88s.72-1.56,1-2.39a13,13,0,0,0,.75-3.13c0-.24-.08-.27-.5-.37-3.8-.84-4.1-1.07-6.1-.64-1.49.32-5.05.64-5.05.64V353s-.77,0-1.39.09c-1.11.15-1.71.51-2.37.54-.25,0-.5,0-.81,0a1.13,1.13,0,0,1-.27,0,1.78,1.78,0,0,0-.61,0l-1.93.07a4.22,4.22,0,0,1-.73,0,2,2,0,0,1-.49-.13,12.37,12.37,0,0,1-1.86-.8c-1.25-.71-2.46-1.93-3.74-2.73a19.36,19.36,0,0,1-2.2-1.33c-.61-.5-1.1-1.19-1.67-1.67-.28-.24-.58-.42-.87-.64a22.21,22.21,0,0,1-3.12-3.37c-.42-.68-.8-1.43-1.08-1.56s-.86.32-1.62.89a.87.87,0,0,0-.46.76c-.48,3-1,6.4-1.59,8.86-.18.74-.38,1.42-.56,2.15-1.18,4.75-2.74,21.71-3.5,26.69a76.32,76.32,0,0,0-.16,8.55,2.52,2.52,0,0,1,.32.92,9.12,9.12,0,0,1-.48,1.72c-.15.5.14,13,.32,13.94.12.58.23,1.11.32,1.67.27,1.79-.24,8.47,0,12.77.17,3.12.9,6,1.27,8.95a27.87,27.87,0,0,1,0,5.15,20.14,20.14,0,0,0-.48,2.66,9.9,9.9,0,0,0,.07,1.18,66.08,66.08,0,0,1-.7,7.91C280.84,446.61,280.65,447.06,280.52,447.49Z" transform="translate(-110.54 -192.05)"/><path class="cls-7" d="M297.19,462.95c0,.2-.06.41-.08.6q-.1.78-.16,1.55t-.05,1.37a11,11,0,0,0,.08,1.28,5.57,5.57,0,0,0,.2,1,1.72,1.72,0,0,0,.35.63,1.77,1.77,0,0,0,.26.23l.21.14.28.07c.38.09,1.09.22,1.43.28.17-1.41.42-3,.67-4.46a72.86,72.86,0,0,1,2.15-9.28q.69-2.27,1.61-4.46l.21-.5a11.75,11.75,0,0,0-2.14,1.17c-1.21.93-3,3.92-3.06,5.89,0,.28,0,.53.07.81a6.12,6.12,0,0,1-.39,2.37A2.35,2.35,0,0,1,297.19,462.95Z" transform="translate(-110.54 -192.05)"/><path class="cls-7" d="M317.83,444.18a4.23,4.23,0,0,1,.25.43l.49-.48q.92-.9,1.88-1.74a1.12,1.12,0,0,0-.17-.29c-.18-.22-.32-.27-.52-.2C319.13,442.12,318.36,443.28,317.83,444.18Z" transform="translate(-110.54 -192.05)"/><path class="cls-7" d="M323.73,460.51a10.91,10.91,0,0,1-3.41-.37,5.75,5.75,0,0,1-1.47-.61,5.38,5.38,0,0,1-1-.75l-.59.81q-.87,1.23-1.68,2.5-.71,1.12-1.38,2.27T313,466.92q-.53,1.2-1,2.43-.87,2.33-1.55,4.73a6.12,6.12,0,0,1-4.85,4.66,7,7,0,0,1-1.43.11,5,5,0,0,1-1.54-.27,6.1,6.1,0,0,1-2.86,1.28,10.87,10.87,0,0,1-4,0,22.48,22.48,0,0,0,2.73.73c1.8.34,6.37.88,7.51.64a20.11,20.11,0,0,1,2.46-.64c.6-.05,1.26,0,1.86,0,2.18-.18,4-2.26,5.64-3.92,3-3,3.34-3.06,4.81-6.13A26.06,26.06,0,0,0,323.73,460.51Z" transform="translate(-110.54 -192.05)"/><path class="cls-7" d="M291.25,477.9a9.83,9.83,0,0,1-2-1.86l-.26.38A15.48,15.48,0,0,0,291.25,477.9Z" transform="translate(-110.54 -192.05)"/><path class="cls-7" d="M296.65,417.24a2.53,2.53,0,0,0-.93.15c-1.41.43-2.75.81-3.33,1.61-.77,1.07.11,2.22,1.51,2.78.47.19.88.14,1.27.32a4.89,4.89,0,0,1,1.35,1.67c.3.9.17,1.41,1.19,2.15,1.58,1.14,4.5.8,6.28.72a50.7,50.7,0,0,1,8.8.93,27.4,27.4,0,0,1,3.63,2s-.27-1.77-.43-3.63a76.54,76.54,0,0,1-.16-8.06,54,54,0,0,1-6.64-.48,4,4,0,0,0-1.15-.32c-.42,0-1,.25-1.46.32a2.48,2.48,0,0,1-1.24-.17,1.36,1.36,0,0,0-.79-.13Z" transform="translate(-110.54 -192.05)"/><path class="cls-7" d="M363.3,389.39c.43,0,.5,0,.7-.21.87-.88.18-1.64-.75-2.4-2.51-2.06-5.56-2.79-8.43-1-1.3.83-.31,1.22-.48,3.52a9.53,9.53,0,0,1-.8,2.45c-.3.56-.71,1-1,1.59s-.46.91-.72,1.35a28.2,28.2,0,0,1-3.7,4.4c-.2.18-.41.34-.59.53a24,24,0,0,0-1.43,2,11.13,11.13,0,0,1-2.1,1.87c-.43.32-3.51,2.54-4,3.38a8.92,8.92,0,0,0-.56,1.35c-.15.37-.29.53-.67.4-1-.34-.38-1.29-.6-2.18a6.45,6.45,0,0,0-.56-1,10.14,10.14,0,0,1-.32-1.11c-.34-1-2.08-2.73-2.73-3.48-.8-.91-1.58-1.91-2.28-2.81a75.66,75.66,0,0,0-5.77-6.24l-1.13-1s-.41,1.12-.66,2a19.37,19.37,0,0,0-.4,4.61,16.39,16.39,0,0,0,.57,2.55c.4,1.56,1,6.21,1.43,9.33a1.06,1.06,0,0,0,.4.81,38.21,38.21,0,0,1,3.56,4.23,33.6,33.6,0,0,0,2,3.7c.16.2.34.39.49.6s.28.48.43.72a6.45,6.45,0,0,0,2.61,2.3c1.84,1.06,3.33,1.85,4.91.67,2.45-1.84,4.49-7.91,5.38-10.23s4.32-9.74,5.33-11.54c.52-.94,1.06-1.84,1.54-2.89,1.4-3,3.34-8.37,3.9-9a.74.74,0,0,1,.18-.16,2.17,2.17,0,0,1,1.42.07l.14.13a2,2,0,0,0,.71.34,2.85,2.85,0,0,0,.86.12Z" transform="translate(-110.54 -192.05)"/><path class="cls-7" d="M244.1,380.25c3.33-2.67,13-9.84,13.43-10.54a12,12,0,0,0,1.16-2.54c.6-1.64,1-2.86.52-4.24a2.77,2.77,0,0,0-2.93-2.21,10.72,10.72,0,0,1-1.47.06c-.62-.1-.94-.6-1.39-.76s-5.16,3.06-6.93,3.7c-.54.19-1.06.28-1.59.48-2.1.77-2.88,2.1-4.48,4.24-2.13,2.86-5.49,7.41-5.78,8.08a17.09,17.09,0,0,0-1,3.76,2.09,2.09,0,0,0,.2,1.49,25.93,25.93,0,0,0,1.83,3.82c.37.53.79,1,1.11,1.51s.43.78.64,1.19a14.49,14.49,0,0,0,5.81,5.89c1.08.65,2.3,1.12,3.56,1.71,1.52.71,4.61,2.28,5.19,3.06.36.49.75,4.14,1.19,6.44a5.19,5.19,0,0,0,.56,1.67c1,1.66,3.72-.55,5-2a8.89,8.89,0,0,1,1.32-1.42c.41-.31.91-.52,1.27-.8a2.23,2.23,0,0,0,.8-2.1c-.32-1.34-1.53-1.29-2.83-1.94a.84.84,0,0,1-.51-.71c-.11-.66.21-1.48,0-1.88-.11-.22-.49-.34-.92-.39a2.44,2.44,0,0,0-1.44.17c-.74.26-.92.12-1.14-.63-.35-1.2-.59-2.88-.87-4.22a3.14,3.14,0,0,0-.32-1,7.93,7.93,0,0,0-.64-.8,9.89,9.89,0,0,1-.69-1.08c-1-1.64-3.83-5-6.09-6a15.25,15.25,0,0,1-2.53-1s-.58-.67-.25-.81c.08,0,.23,0,.25-.07S244.05,380.29,244.1,380.25Z" transform="translate(-110.54 -192.05)"/><path class="cls-7" d="M303.49,382.86a1.51,1.51,0,0,0-.85.24,3.26,3.26,0,0,1-.79.27c-1.95.48-3.84.81-5.09,2.31a2.26,2.26,0,0,0-.56,2.62c1,2.67,2,2.69,4.93,3.66a82.43,82.43,0,0,1,8,3.83c1.28.72,2.54,1.5,3.67,2.09s2.33,1,4.13,2.08c.85.5,1.87,1.14,1.87,1.14s.14-.28.26-.55a23.84,23.84,0,0,0,.72-4.71c-.13-5.93.4-6.63-1-11-.41-1.27-1-3-1-3s-.75,0-1.39.08c-1.36.15-2.18.58-3,.56-.16,0-.32,0-.52,0a1.36,1.36,0,0,1-.33-.06,1.33,1.33,0,0,0-.63,0Z" transform="translate(-110.54 -192.05)"/><path class="cls-7" d="M362.57,390.84c-.3,0-.34,0-.38.22a1.51,1.51,0,0,1-.16.41,2,2,0,0,0-.31.62,4.25,4.25,0,0,0-.07.66,2.71,2.71,0,0,0,.65-.07,4.27,4.27,0,0,0,.94-1.33,2.09,2.09,0,0,0,0-.51Z" transform="translate(-110.54 -192.05)"/><path class="cls-7" d="M361.5,384a1.68,1.68,0,0,0,0,.38c.07.42,1,.5,1.27.65.72.38,1.85,2,2.23.77.17-.54-.31-1.08-.91-1.42a1.52,1.52,0,0,0-.87-.26Z" transform="translate(-110.54 -192.05)"/><path class="cls-7" d="M312.65,324.65a25.75,25.75,0,0,1-1.13,2.9c-.8,1.91-.89,2.19-2,3.28-2.52,2.49-3.7,3.75-6.67,4a8.75,8.75,0,0,1-7.16-2.22c-1.21-1-1.55-1.31-1.88-2.39-1.08-3.5-.85-5.86.24-9.54a12.3,12.3,0,0,1,10.81-8.59,7.18,7.18,0,0,1,2.71.4,6.16,6.16,0,0,1,.88.72,17,17,0,0,0,1.51.87,11.34,11.34,0,0,1,2,2.63C313.25,319.34,313.49,321.26,312.65,324.65Zm1.59,11.16c.21,0,.26,0,.54.29,1.34,1.24.93,2.79.53,3.86a3.11,3.11,0,0,1-1.16,1.26,4.69,4.69,0,0,1-1.17,0v-.64c0-.29,0-.32.08-.34l.15-.06a2,2,0,0,0,1.12-2.65c-.16-.31-.47-.45-.55-1a3.92,3.92,0,0,1,0-.76Zm21-16.86s0-5.05-.32-7.83c-.09-.86-.2-1.5-.32-2.2-.49-2.85-1.33-7-4.16-8.79a5,5,0,0,1-1.07-.72l-.13-.18a10.06,10.06,0,0,0-3.12-1.78c-1.93-.76-4.94-1.81-4.94-1.81a4.85,4.85,0,0,1-.35,1c-.37.64-2.65,1.37-3.13,1.43-1.09.14-3.36-.31-4-1.27-.83-1.2-.26-1.19.5-2.51.08-.13.09-.2.06-.26a5.42,5.42,0,0,0-2.23-.57,14.8,14.8,0,0,0-6.52,1.91c-6,3.35-10.31,7.2-13.37,12.77-2.06,3.74-5.4,15.52-5.4,20.92a12.31,12.31,0,0,1-.08,2.42c-.12.58-.36,1.16-.48,1.75-.06.32-.09.64-.16,1a12.73,12.73,0,0,1-.64,1.75,62.51,62.51,0,0,0-1.19,6.68c-.25,1.7-2.16,9.08-3.1,12.88-.31,1.26-1.37,10-1.42,11.74-.1,3.47-.1,8-.1,8h.25s1.51-11.43,2.69-19.25a170.73,170.73,0,0,1,6-27.2c.7-2.22,6.87-18,7.4-18.93a.86.86,0,0,1,.49-.48c.6-.17.75.07.71.37a2.22,2.22,0,0,1-.19.55c-2.4,6-6.3,15.76-7.06,18.17a31.27,31.27,0,0,0-1.51,5.82c0,.46,0,1,0,1s.79-.67,1.43-1.11c1-.69,3.22-1.25,4.19-.39a1.57,1.57,0,0,1,.42.93,7.47,7.47,0,0,1-1.19,1.53c-.3.23-.63.34-.87.56-.6.53-.28,1,.29,1.8,2,2.67,6.65,5,9.89,5.84.9.22,9.21.8,10.34.72,3.11-.22,7.81-.45,8.43-.32a18.58,18.58,0,0,0,3.24.64,7.21,7.21,0,0,0,2.73-2.07c.81-.92,2.11-2.66,2.11-2.66a13,13,0,0,1-1.41-.13c-1.21-.21-2.93-1.85-3.72-2.93-1.83-2.51-1.62-7.46-.64-10.66a13.93,13.93,0,0,1,6.12-7.08,17.68,17.68,0,0,1,4-1,9.46,9.46,0,0,0,1,.32c.14,0,.28,0,.31-.07s0-.23.07-.25A.49.49,0,0,1,335.25,318.94Z" transform="translate(-110.54 -192.05)"/><path class="cls-7" d="M317.91,296c-.21-.06-.57,0-.89-.08-.66-.13-1.13-.71-1.58-.72a.9.9,0,0,0-.56.24c-.33.27-.28.67.16,1,.75.49,2.82.85,3.18.14.07-.13.07-.29-.07-.31s-.25,0-.25-.07S317.95,296,317.91,296Z" transform="translate(-110.54 -192.05)"/><path class="cls-7" d="M316.22,293.84a.87.87,0,0,0,.25.22c.44.31,1.25.77,1.6.54s-.83-.81-1.4-1c-.25-.1-.46-.19-.51-.07A.57.57,0,0,0,316.22,293.84Z" transform="translate(-110.54 -192.05)"/><path class="cls-7" d="M317.27,291.74a3.07,3.07,0,0,0,.09.34c.19.56,1.4,1.12,2,1.33a2.91,2.91,0,0,0,1.27.24c.29-.23-.83-1-1.2-1.5-.1-.13-.15-.24-.23-.33s-.41-.22-.86-.24-.89,0-.89,0v.16Z" transform="translate(-110.54 -192.05)"/><path class="cls-7" d="M317,288.55a5.11,5.11,0,0,0,.4,1.7c.22.23,1.47.3,1.75.45s.6.58,1,1c.78.8,1.23,1,1.67.4a11.18,11.18,0,0,0,1.27-2.7c.13-.36,1.28-3.83.88-4.06-.16-.09-.55.19-.89.55-.54.57-.78,1-1.23.81-1-.48-1.58-2.26-2.26-1.68-.34.29-.6,1.17-1,1.44-.63.41-.85-.29-1.41-.79-.13-.11-.25-.14-.34-.08A14.81,14.81,0,0,0,317,288.55Z" transform="translate(-110.54 -192.05)"/><path class="cls-6" d="M321.15,419a15.38,15.38,0,0,1,.42,2.78c0,1.71-.62,2.85-.48,3.86a3.74,3.74,0,0,1,.16,1.22c-.09.38-.48.76-.85.57-1.23-.62-.18-3.75-.11-4.73a29,29,0,0,0-.16-3.7Zm.36,22.49q.95-.79,1.93-1.53l.09-.06c.07-.29.13-.58.19-.86.9-4.33,1.78-23.12,1.47-27.55,0-.48-.86-9.54-1.63-11.42a9.52,9.52,0,0,1-.72-1.8,3.39,3.39,0,0,1,0-.81,31.32,31.32,0,0,1,1-6.46c.53-2.19,1.76-9.61,2-11.93.5-5.1.39-14.8,1-23.22.39-5,1.06-11.24,1.06-11.24a12.08,12.08,0,0,1-1.12,1.14c-.59.48-.95.47-1.06.71s.06,1-.05,1.58-.49,1.07-.61,1.56a5.65,5.65,0,0,0,.13,1.77c.07.61-4.56,12-5.17,14.51-.24,1-.8,4.57-.56,5.36.29,1,1.34,2,1.83,2.91a3.82,3.82,0,0,1,.36,1.12c.33,1.84.16,3.68-1.14,4.93a7.62,7.62,0,0,0-1.28,1.25c-.29.61.92,3.82,1.11,4.63,1,4.6.39,12.28.11,16.07,0,.43,0,.5.31.7a4.76,4.76,0,0,1,1.48,2.16c1,2.36,2.19,5.89.64,8.11-.21.31-.48.55-.72.87-.9,1.26-.93,1.68-2.2,2.39-1.65.93-2.42.75-2.89,1.29a50.4,50.4,0,0,0,0,7c.36,2.38.59,4.27,1,6.14a5.19,5.19,0,0,0,.4,1.19c.21.41.52.77.8,1.19a8.55,8.55,0,0,1,1.27,3.28,19.69,19.69,0,0,1,0,2.12h.32v.16h.16a7.28,7.28,0,0,0,.09,1.58A8.21,8.21,0,0,0,321.51,441.49Z" transform="translate(-110.54 -192.05)"/><path class="cls-1" d="M394.82,424.87a16.34,16.34,0,0,0-1.69,5.15,15,15,0,0,0-.15,1.59,14.1,14.1,0,0,0-1.48,1.72,12,12,0,0,0-4-2.18,12.79,12.79,0,0,0-3.57-6.24,13.58,13.58,0,0,0-4.86-3,14.91,14.91,0,0,0-5.38-.87,13,13,0,0,0-.54-3.09,12.05,12.05,0,0,0-9.85-8.54,13.29,13.29,0,0,0-6.34-7.88,13.81,13.81,0,0,0-4.4-1.62,14,14,0,0,0-5.13,0,18.49,18.49,0,0,0-9.2,4.83,29.11,29.11,0,0,0-3.67,4.14,47.18,47.18,0,0,0-3.24,5.07q-1.71,3-3.18,6.22-1.57,3.39-2.9,6.89-.89,2.34-1.69,4.71a12.41,12.41,0,0,0-2.69-.86,11.66,11.66,0,0,0-4.17-.06l-.43.07-.43.11a11.63,11.63,0,0,0-3,1.23q-.43.25-.84.52-1,.66-1.9,1.38a12.86,12.86,0,0,0-10.26,2,15.9,15.9,0,0,0-2.71,2.34,14.16,14.16,0,0,0-3.14-1.91,16.3,16.3,0,0,0-9.62-1.1,21,21,0,0,0-6,2,23.78,23.78,0,0,0-5.09,3.57,31,31,0,0,0-2.5,2.55,13.46,13.46,0,0,0-2.94-1.62q.87-2.15,1.81-4.27a16.84,16.84,0,0,0,1.57-5.16A12.24,12.24,0,0,0,266,420.83a12.39,12.39,0,0,0-16.41,1.86,14.32,14.32,0,0,0-2.1,3.07q-.22.42-.42.85a16,16,0,0,0-4.56-4.36,16.74,16.74,0,0,0-6.36-2.45,18.67,18.67,0,0,0-6.43.08,23.43,23.43,0,0,0-5.66,1.79,29.51,29.51,0,0,0-4.79,2.78A44.35,44.35,0,0,0,212,431a80.26,80.26,0,0,0-14,22.72q-1.09,2.58-2,5.24-.78,2.27-1.39,4.59a45,45,0,0,0-1.46,9.23,32.48,32.48,0,0,0,.11,4.48,26.74,26.74,0,0,0,1.08,5.41,20.84,20.84,0,0,0,2.67,5.55,21.26,21.26,0,0,0,4.52,4.82,21.8,21.8,0,0,0,12.78,4.77,23.65,23.65,0,0,0,5.17-.36,27.68,27.68,0,0,0,8.34-2.95,37,37,0,0,0,10-8.17,12.55,12.55,0,0,0,10.25,2.61,11.8,11.8,0,0,0,7.29-4.37,14.12,14.12,0,0,0,5.11.56,16.62,16.62,0,0,0,6.83-2,21.05,21.05,0,0,0,3.6-2.49,15.66,15.66,0,0,0,10.68,1.8,16.27,16.27,0,0,0,5.75-2.24,16.88,16.88,0,0,0,9.36,1,13.27,13.27,0,0,0,2.61-.73,13,13,0,0,0,7.42-2.31,12.75,12.75,0,0,0,4-4.58,14.5,14.5,0,0,0,1.12-2.79,36.77,36.77,0,0,1,2.15-5.82,18,18,0,0,0,5.43-.49,13.74,13.74,0,0,0,5,5.93,14.68,14.68,0,0,0,10.81,2.18,17.94,17.94,0,0,0,7.77-3.53l.15.09a12.46,12.46,0,0,0,4,1.6,12.59,12.59,0,0,0,4.8.05,12.17,12.17,0,0,0,8.21-5.47,19.47,19.47,0,0,0,10.55.91,25.81,25.81,0,0,0,5.5-1.65,30,30,0,0,0,5.5-3.06,40.51,40.51,0,0,0,9.36-9.06,17.76,17.76,0,0,0,5.09,5.19A21.69,21.69,0,0,0,421,456.39a18.45,18.45,0,0,0,2.37-2.27,15,15,0,0,0,3.81-9.77,15.24,15.24,0,0,0-.82-5.08,22.27,22.27,0,0,0,2.21-2,18.22,18.22,0,0,0,2.83-3.69,17.13,17.13,0,0,0,1.9-4.81A15,15,0,0,0,433,421a13.56,13.56,0,0,0-3.32-5.56,14.69,14.69,0,0,0-10.25-4.17,23.62,23.62,0,0,0-4.66.35q.32-1.08.63-2.17.35-1.24.66-2.5.35-1.43.62-2.88a20.49,20.49,0,0,0,.33-3,12.55,12.55,0,0,0-.46-3.78v0a12,12,0,0,0-8-8.12,12.92,12.92,0,0,0-14.85,5.56,15.21,15.21,0,0,0-1.58,3.43,18.92,18.92,0,0,0-.63,2.57q-.05.26-.12.51l-.31,1.17-.54,2-.94,3.39q-.38,1.21-.65,2.44a17.16,17.16,0,0,0-.42,3.86,12.72,12.72,0,0,0,1.65,6.15A11.9,11.9,0,0,0,394.82,424.87Z" transform="translate(-110.54 -192.05)"/><path class="cls-5" d="M397.27,424.09q-.45.67-.83,1.37a14.63,14.63,0,0,0-1.62,4.81,13.43,13.43,0,0,0-.15,2.09,12.37,12.37,0,0,0-2.76,3.51l-.1.19a10.19,10.19,0,0,0-5.79-3.53,11.25,11.25,0,0,0-3.29-6.38,11.88,11.88,0,0,0-4.25-2.63,13.22,13.22,0,0,0-6.55-.61,11.34,11.34,0,0,0-.43-4.47A10.34,10.34,0,0,0,362,411h-.05q-.13-.62-.31-1.23a11.64,11.64,0,0,0-5.51-6.76,12.12,12.12,0,0,0-3.86-1.43,12.35,12.35,0,0,0-4.5,0c-7,1.3-11.69,7.38-14.94,13.19q-1.68,3-3.12,6.1-1.55,3.34-2.86,6.78-1.24,3.26-2.31,6.58a11.22,11.22,0,0,0-4-1.66,9.93,9.93,0,0,0-3.56-.05l-.36.06-.35.09a9.92,9.92,0,0,0-2.56,1.06q-.38.22-.75.47c-.81.54-1.68,1.2-2.46,1.83a11.14,11.14,0,0,0-9.68,1.49,14.93,14.93,0,0,0-3.52,3.4,12.44,12.44,0,0,0-4-2.81,14.61,14.61,0,0,0-8.62-1,19.29,19.29,0,0,0-5.49,1.88,22.17,22.17,0,0,0-4.72,3.31A29.34,29.34,0,0,0,271,446a11.65,11.65,0,0,0-5.41-3q1.19-3,2.51-6a15.25,15.25,0,0,0,1.43-4.67,10.75,10.75,0,0,0-.32-4.32A10.94,10.94,0,0,0,257,420.41a10.73,10.73,0,0,0-3.9,1.51,11.61,11.61,0,0,0-4.11,4.62,28.61,28.61,0,0,0-1.4,3.22l-.33.86a14.25,14.25,0,0,0-5.69-6.93,15,15,0,0,0-5.71-2.2,17.16,17.16,0,0,0-5.84.07,21.72,21.72,0,0,0-5.25,1.66,27.81,27.81,0,0,0-4.51,2.62,37.06,37.06,0,0,0-3.62,2.93q-1.73,1.59-3.3,3.34-2.06,2.29-3.89,4.76a83.43,83.43,0,0,0-9.78,17.48q-1.06,2.53-2,5.13a53.79,53.79,0,0,0-2.38,9.52,33.08,33.08,0,0,0-.26,8.07,25.05,25.05,0,0,0,1,5.07,19.15,19.15,0,0,0,2.46,5.1,19.61,19.61,0,0,0,4.16,4.43,20.48,20.48,0,0,0,7.49,3.77,21.19,21.19,0,0,0,9.1.3A26,26,0,0,0,227.1,493a30.49,30.49,0,0,0,3.41-2.15,35.68,35.68,0,0,0,3.24-2.66,41,41,0,0,0,4.05-4.34,10.79,10.79,0,0,0,10.08,3.43,10.11,10.11,0,0,0,6.17-3.64,10.32,10.32,0,0,0,.76-1.1,13.63,13.63,0,0,0,11.78-.93,19.32,19.32,0,0,0,3.43-2.4l.07-.06.73-.68a14,14,0,0,0,10.56,2.26,14.57,14.57,0,0,0,5.88-2.49,15.31,15.31,0,0,0,9.24,1.24,11.57,11.57,0,0,0,2.57-.76,12,12,0,0,0,2.33-.18,11,11,0,0,0,7.92-5.79,12.8,12.8,0,0,0,1-2.47q.51-1.79,1.16-3.53a29,29,0,0,1,1.51-3.38l.15-.25a16.47,16.47,0,0,0,7.45-.74,12,12,0,0,0,4.93,6.57,13,13,0,0,0,9.56,1.93,15.69,15.69,0,0,0,4.82-1.74,18.13,18.13,0,0,0,3.17-2.25,11.49,11.49,0,0,0,4.61,2.17,10.91,10.91,0,0,0,4.16,0,10.45,10.45,0,0,0,7.76-6,16.44,16.44,0,0,0,4.88,1.54,18.77,18.77,0,0,0,6.11-.12,26.18,26.18,0,0,0,10.33-4.43,38.23,38.23,0,0,0,7.93-7.37,37.51,37.51,0,0,0,2.6-3.55,16,16,0,0,0,5.84,7,20,20,0,0,0,22.64-1.13A16.76,16.76,0,0,0,422.1,453a14.07,14.07,0,0,0,2.27-3.55,13.27,13.27,0,0,0-.07-10.79,20.53,20.53,0,0,0,3.07-2.54,15.89,15.89,0,0,0,4.28-7.67,13.3,13.3,0,0,0-.27-6.92,11.86,11.86,0,0,0-2.89-4.86,12,12,0,0,0-5-3,18.27,18.27,0,0,0-8.7-.29q-1.26.22-2.5.55l.07-.23a87.35,87.35,0,0,0,2.64-9.91,18.75,18.75,0,0,0,.3-2.8,10.83,10.83,0,0,0-.39-3.26,10.16,10.16,0,0,0-2.77-4.54,10.9,10.9,0,0,0-9.42-2.76,11.23,11.23,0,0,0-7.6,5.17,13.51,13.51,0,0,0-1.41,3.05,17.18,17.18,0,0,0-.58,2.37q-.07.32-.15.64l-.3,1.16-.54,2-.95,3.43q-.36,1.15-.62,2.33a15.45,15.45,0,0,0-.38,3.48,11,11,0,0,0,1.44,5.33A10.19,10.19,0,0,0,397.27,424.09Z" transform="translate(-110.54 -192.05)"/><path class="cls-1" d="M231.5,429.95a7.3,7.3,0,0,1,5.45.92,5.72,5.72,0,0,1,2.45,3.18q1.13,3.61-.5,8.76a27,27,0,0,1-4.49,8.33q-2,2.51-3.53,2.78a3.09,3.09,0,0,1-2.1-.45,2,2,0,0,1-1-1.16q-.41-1.3,2-3.48a21.11,21.11,0,0,0,4.86-6.35q2.27-4.72,1.38-7.54a2.59,2.59,0,0,0-1.18-1.6,3.17,3.17,0,0,0-2.1-.22q-2.61.46-6.47,4.28a59.83,59.83,0,0,0-8.67,11.14,54.71,54.71,0,0,0-7.23,16.5q-1.86,8.1-.22,13.3a6.83,6.83,0,0,0,3.18,3.91,7.87,7.87,0,0,0,5.6,1.09q5.13-.9,10.95-8.52a48.9,48.9,0,0,0,3.92-6.5,23.55,23.55,0,0,0,1.77-3.77,1.73,1.73,0,0,1,1.32-1.37q1-.18,1.29.6.53,1.67-3,8.45A34.23,34.23,0,0,1,228,481.9a20.33,20.33,0,0,1-10.21,5.45,11.84,11.84,0,0,1-9.82-2.39,10.81,10.81,0,0,1-3.74-5.35q-2.53-8,3.31-22a69.89,69.89,0,0,1,12.14-19.84Q225.86,430.94,231.5,429.95Z" transform="translate(-110.54 -192.05)"/><path class="cls-1" d="M251.16,460.9a39.72,39.72,0,0,1,5.52-6q3.74-3.25,5.68-3.59a3.06,3.06,0,0,1,1.73.24,2.07,2.07,0,0,1,1.29,1.23q.32,1-1.06,3.48a38.45,38.45,0,0,0-3.64,8.49q-.89,3.22-.56,4.26t1.55.79q2.56-.45,6.39-8.66.78-1.67,1.77-1.84a1,1,0,0,1,1.28.72q.46,1.45-1.86,6.18a21,21,0,0,1-4.83,6.62,8.43,8.43,0,0,1-4,2.07,3.77,3.77,0,0,1-3.38-.86,4,4,0,0,1-1.17-1.8q-1-3.31.62-8.07.4-1.13,2.47-6.48-8.48,5.54-11.17,19.43a1.75,1.75,0,0,1-1.44,1.78,2.46,2.46,0,0,1-1.62-.22,2,2,0,0,1-1-1.16q-.39-1.23.85-7.49a193.32,193.32,0,0,1,4.87-19.85q2.55-8.3,6-17.35a13.66,13.66,0,0,1,1.41-3,2.32,2.32,0,0,1,1.5-1,2.2,2.2,0,0,1,1.69.45,2.08,2.08,0,0,1,.85,1.11,4.53,4.53,0,0,1-.64,3.06,162.63,162.63,0,0,0-5.91,15.44Q251.49,457.78,251.16,460.9Z" transform="translate(-110.54 -192.05)"/><path class="cls-1" d="M288.9,450.91a5,5,0,0,0-1.61-1,3,3,0,0,0-1.55-.14q-3.61.64-6.28,6.33-2.93,6.29-1.74,10.08a2.39,2.39,0,0,0,.9,1.33,2,2,0,0,0,1.5.24q2.28-.4,4.12-4.73a52.49,52.49,0,0,0,2.29-6.88,27.23,27.23,0,0,1,1.32-3.92A5.37,5.37,0,0,1,288.9,450.91Zm-2.08,13.28a24.56,24.56,0,0,1-1.94,4.19q-2.08,3.43-5,3.95a5.45,5.45,0,0,1-4.58-1.19,5.7,5.7,0,0,1-1.81-2.74q-1.3-4.13.46-9.69a22.46,22.46,0,0,1,6.24-10.09,12,12,0,0,1,6-3.1,6.09,6.09,0,0,1,3.63.38,3,3,0,0,1,1.75,1.73,5,5,0,0,1-.09,2.41,2.72,2.72,0,0,1,1.14,1.25,5.06,5.06,0,0,1-.52,2.8,23.36,23.36,0,0,0-1.23,5.32,12.94,12.94,0,0,0,.14,5.39,3.92,3.92,0,0,0,2,2.36,11.46,11.46,0,0,0,2.22.51,2,2,0,0,1,1.68,1.35,1.22,1.22,0,0,1-.3,1.27,2.59,2.59,0,0,1-1.51.78,7,7,0,0,1-5-1,5.86,5.86,0,0,1-2.67-3.38Q287.17,465.93,286.82,464.19Z" transform="translate(-110.54 -192.05)"/><path class="cls-1" d="M304.74,454.59a74.52,74.52,0,0,1,8.33-9.51,39.68,39.68,0,0,1,3.87-3.31,5,5,0,0,1,1.39-.83,2.31,2.31,0,0,1,1.68.57,1.55,1.55,0,0,1,.68.74q.21.67-1.23,2.14-3.89,3.87-3.41,5.39.27.85,1.5.64,2-.36,6.19-3.88a2.91,2.91,0,0,1,1.28-.7,1.4,1.4,0,0,1,.85.16,1.14,1.14,0,0,1,.65.63q.35,1.12-2.91,4.12a14.07,14.07,0,0,1-7.16,3.85,6.76,6.76,0,0,1-3-.14,2.3,2.3,0,0,1-1.68-1.67,3.25,3.25,0,0,1,.33-2.29,36.24,36.24,0,0,0-6.58,8.69,44.09,44.09,0,0,0-3.42,8.73,2.73,2.73,0,0,1-2.17,2.19q-1.76.31-2.17-1t.62-7.25q1.51-8.9,4.55-14.18,1.88-3.27,3.73-3.6a2.48,2.48,0,0,1,1.23.1,1.33,1.33,0,0,1,.91.82,2.52,2.52,0,0,1-.46,1.73l-1.73,2.93A16.64,16.64,0,0,0,304.74,454.59Z" transform="translate(-110.54 -192.05)"/><path class="cls-1" d="M335.08,442.88A63.28,63.28,0,0,0,347.47,423q2.38-6,1.85-7.66a.91.91,0,0,0-1.16-.66q-2.61.46-6.93,9.82A97.54,97.54,0,0,0,335.08,442.88Zm-1.51,6.51q-.51,3.15-.66,5.06a8.06,8.06,0,0,0,.07,2.62q.29.93,1.43.73,1.71-.3,3.62-3.31a40.33,40.33,0,0,0,2.4-5.09,2.36,2.36,0,0,1,1.69-1.63q1.23-.22,1.53.71.5,1.6-2.66,7.3-3.29,6-7.46,6.69a4.45,4.45,0,0,1-3.32-.67,3.54,3.54,0,0,1-1.46-1.94,15.4,15.4,0,0,1-.2-6,73.7,73.7,0,0,1,2-9.81,106.77,106.77,0,0,1,9.7-25.06q4.59-8.19,9.05-9a3.67,3.67,0,0,1,2.6.44,3.17,3.17,0,0,1,1.57,1.8q1.64,5.2-6.41,19.42a86.52,86.52,0,0,1-9.33,13Q336.19,446.42,333.57,449.39Z" transform="translate(-110.54 -192.05)"/><path class="cls-1" d="M360.66,419.58q2.14-.38,2.67,1.33t-1,3.83a5.08,5.08,0,0,1-3.27,2.5,2.36,2.36,0,0,1-1.64-.26,1.83,1.83,0,0,1-.94-1.09q-.56-1.78,1.32-4.24A4.85,4.85,0,0,1,360.66,419.58ZM356,435a2.13,2.13,0,0,1,1.48.25,1.48,1.48,0,0,1,.64.75,4.12,4.12,0,0,1-.67,2.47,57.64,57.64,0,0,0-3.92,11.09,66.71,66.71,0,0,0-1.37,8.87q-.17,2-1.79,2.28a2.29,2.29,0,0,1-1.71-.33,1.73,1.73,0,0,1-.85-.95q-.35-1.12.7-8a43.22,43.22,0,0,1,4.23-12.36,18.75,18.75,0,0,1,1.73-3.09A2.41,2.41,0,0,1,356,435Z" transform="translate(-110.54 -192.05)"/><path class="cls-1" d="M365,446.29a18.83,18.83,0,0,0,4.59-2.93,15.86,15.86,0,0,0,3.84-5.46,2.52,2.52,0,0,0,.21-1.72q-.23-.74-1.14-.58a6.55,6.55,0,0,0-3.06,2.07A17.08,17.08,0,0,0,365,446.29Zm-.13,3.08.21.67a2.5,2.5,0,0,0,1,1.32,5.53,5.53,0,0,0,4.33.69q5.93-1,11.47-9.56a3.36,3.36,0,0,1,1.94-1.64,1.54,1.54,0,0,1,1.08.24,1,1,0,0,1,.46.51q.46,1.45-3,5.71a29.71,29.71,0,0,1-6.2,5.76,17.66,17.66,0,0,1-7,3,8.8,8.8,0,0,1-6.21-.95,5.86,5.86,0,0,1-2.52-3.4q-2-6.28,3.67-13.64,4.58-6,9.14-6.79a4.69,4.69,0,0,1,2.42.2,2.88,2.88,0,0,1,1.88,1.83q.62,2-.8,5.24Q373.75,445.4,364.83,449.37Z" transform="translate(-110.54 -192.05)"/><path class="cls-1" d="M404.23,398.82a2.58,2.58,0,0,1,1.28.09,1.8,1.8,0,0,1,1.22,1.16q.5,1.6-2.48,11.07a12.17,12.17,0,0,1-1.89,4.18,2.44,2.44,0,0,1-1.32.74,1.8,1.8,0,0,1-2.21-1.45q-.34-1.08.56-3.94,2-7.35,2.16-8.11Q402.1,399.2,404.23,398.82Z" transform="translate(-110.54 -192.05)"/><path class="cls-1" d="M416.31,421.77a10,10,0,0,1,4.67,0,3.28,3.28,0,0,1,2.26,2.23,5.5,5.5,0,0,1-.75,4.61,12.34,12.34,0,0,1-5,4.18A12.69,12.69,0,0,1,414,434.1q-2,.35-2.43-1a1.37,1.37,0,0,1,.69-1.61q.25-.16,3-1.2a7,7,0,0,0,2.82-1.87,2.09,2.09,0,0,0,.7-2.09,1.56,1.56,0,0,0-.93-1.05,3.43,3.43,0,0,0-1.83-.07,11.9,11.9,0,0,0-5.53,2.82q-3.22,2.65-2.37,5.36.61,1.93,4,4.39,3.8,2.67,4.49,4.86,1,3.27-2.09,5.78a10.34,10.34,0,0,1-4.81,2.06,10.18,10.18,0,0,1-7.74-1.34,7.49,7.49,0,0,1-3-4,6.38,6.38,0,0,1,.37-5.21,3.08,3.08,0,0,1,2.15-1.75q1.19-.21,1.42.53a1.7,1.7,0,0,1-.15,1,6.34,6.34,0,0,0,.09,3.95,4.62,4.62,0,0,0,2.63,2.79,6.08,6.08,0,0,0,3.72.52,3.65,3.65,0,0,0,2.59-1.48,2.59,2.59,0,0,0,.2-2.23q-.49-1.56-3.55-3.65-4.21-2.87-5.09-5.66-1.17-3.72,3.1-7.49A19.77,19.77,0,0,1,416.31,421.77Z" transform="translate(-110.54 -192.05)"/><path class="cls-3" d="M110.69,527.5a16.8,16.8,0,0,0,14.62,14.62h374a16.88,16.88,0,0,0,0-33.74h-374A17,17,0,0,0,110.69,527.5Z" transform="translate(-110.54 -192.05)"/><path class="cls-2" d="M499.27,509.7H125.48A15.7,15.7,0,0,0,112,527.34a15.49,15.49,0,0,0,13.48,13.48H499.27a15.57,15.57,0,0,0,0-31.12Z" transform="translate(-110.54 -192.05)"/><path class="cls-3" d="M144.84,523.09a42.14,42.14,0,0,1,2.31-4,1.33,1.33,0,0,0,.18-.61c2.82-.62,4.3-.39,6.95-.59.66-.05,1.42-.85,1.18-1.56l-.29-.54a3,3,0,0,0-1.68-.44h0a43.87,43.87,0,0,0-5.91.48c-.94.12-3.06.41-3.68,1a1.15,1.15,0,0,0-.21.87v0a1.35,1.35,0,0,0,.54.92l-2.77,5a46.62,46.62,0,0,0-3,7.47,26.53,26.53,0,0,0-.61,2.76,1.86,1.86,0,0,0,1.75,1.56,1.56,1.56,0,0,0,1-.28,16.12,16.12,0,0,1,6.94-1.75l1-.08a.94.94,0,0,0,.76-1.16c-.46-2.6-7.45-.25-8.28,0a32,32,0,0,1,2.4-6.24,26.67,26.67,0,0,1,5.76-.78,6.31,6.31,0,0,0,1-.16,1,1,0,0,0,.65-1.17,1.45,1.45,0,0,0-1.63-1.13A33.33,33.33,0,0,0,144.84,523.09Z" transform="translate(-110.54 -192.05)"/><path class="cls-3" d="M163.46,529.55a32.45,32.45,0,0,1,.07-7.25,37.83,37.83,0,0,1,.79-4.7c.25-.93,0-1.63-1-1.76s-1.71.87-2.21,1.51a58.42,58.42,0,0,0-7.41,14.61,20.94,20.94,0,0,0-.61,3,1.21,1.21,0,0,0,.38.66h0a1.23,1.23,0,0,0,.83.33c1.54,0,1.65-1.6,1.91-2.68A41.17,41.17,0,0,1,161,521.92a49.51,49.51,0,0,0,.24,11.29l.3,1.35a1.52,1.52,0,0,0,1.45,1.2c1.44,0,2.18-1.53,2.4-2.72a52.86,52.86,0,0,1,1.64-5.87,59.15,59.15,0,0,1,3.92-8.57l1-1.92a2.45,2.45,0,0,0,.19-.76c0-.63-.53-.84-1-.9a2,2,0,0,0-1.52.75l-1,1.71-3.62,7.79A40.54,40.54,0,0,0,163.46,529.55Z" transform="translate(-110.54 -192.05)"/><path class="cls-3" d="M229,523.09a42.22,42.22,0,0,1,2.31-4,1.33,1.33,0,0,0,.18-.61c2.82-.62,4.3-.39,6.95-.59.66-.05,1.42-.85,1.18-1.56l-.29-.54a3,3,0,0,0-1.68-.44h0a43.87,43.87,0,0,0-5.91.48c-.94.12-3.06.41-3.68,1a1.15,1.15,0,0,0-.21.87v0a1.34,1.34,0,0,0,.54.92l-2.77,5a46.68,46.68,0,0,0-3,7.47,26.66,26.66,0,0,0-.61,2.76,1.86,1.86,0,0,0,1.75,1.56,1.56,1.56,0,0,0,1-.28,16.12,16.12,0,0,1,6.94-1.75l1-.08a.94.94,0,0,0,.76-1.16c-.46-2.6-7.45-.25-8.28,0a32,32,0,0,1,2.4-6.24,26.67,26.67,0,0,1,5.76-.78,6.31,6.31,0,0,0,1-.16,1,1,0,0,0,.65-1.17,1.45,1.45,0,0,0-1.63-1.13A33.33,33.33,0,0,0,229,523.09Z" transform="translate(-110.54 -192.05)"/><path class="cls-3" d="M246,518.79c3.87-1.24,4.48.89,4.56,1.59.48,4.48-3.58,10.58-7.07,12.75a4.68,4.68,0,0,1-2.32.89.25.25,0,0,1-.13,0,.13.13,0,0,1,0-.06,15.25,15.25,0,0,1,.41-2.35,68.29,68.29,0,0,1,4.21-11.13,7.41,7.41,0,0,0,.48-1.38A1.08,1.08,0,0,0,246,518.79Zm-3.58,1.89a71,71,0,0,0-3.85,10.55l-.48,2.21a4.27,4.27,0,0,0-.06,1.22,2.1,2.1,0,0,0,.72,1.21c2,1.66,5.6-.18,7.36-1.56a18.45,18.45,0,0,0,5.86-7.2,11.66,11.66,0,0,0,1.29-6.61,5.61,5.61,0,0,0-5.82-4.47,8.55,8.55,0,0,0-5.23,1.67l-.77.63a2.57,2.57,0,0,0-.6.76,1.06,1.06,0,0,0,.38,1.4A1.3,1.3,0,0,0,242.43,520.68Z" transform="translate(-110.54 -192.05)"/><path class="cls-3" d="M294.81,523.09a42.25,42.25,0,0,1,2.31-4,1.33,1.33,0,0,0,.18-.61c2.82-.62,4.3-.39,6.95-.59.66-.05,1.42-.85,1.18-1.56l-.29-.54a3,3,0,0,0-1.68-.44h0a43.88,43.88,0,0,0-5.91.48c-.94.12-3.06.41-3.68,1a1.15,1.15,0,0,0-.21.87v0a1.34,1.34,0,0,0,.54.92l-2.77,5a46.67,46.67,0,0,0-3,7.47,26.53,26.53,0,0,0-.61,2.76,1.86,1.86,0,0,0,1.75,1.56,1.56,1.56,0,0,0,1-.28,16.12,16.12,0,0,1,6.94-1.75l1-.08a.94.94,0,0,0,.76-1.16c-.46-2.6-7.45-.25-8.28,0a32,32,0,0,1,2.4-6.24,26.67,26.67,0,0,1,5.76-.78,6.31,6.31,0,0,0,1-.16,1,1,0,0,0,.65-1.17,1.45,1.45,0,0,0-1.63-1.13A33.33,33.33,0,0,0,294.81,523.09Z" transform="translate(-110.54 -192.05)"/><path class="cls-3" d="M310,525.21a31.08,31.08,0,0,1,3.63-4.66q.3-.33.62-.62l-.66,2.68-.33,1.85Zm3,1.79-.14,1.88c-.14,1.58-.33,5.29.51,6.46a1.63,1.63,0,0,0,1.38.7,1,1,0,0,0,1-1.12q-.16-1.86-.15-3.72a40.46,40.46,0,0,1,.34-4.61l1.48-.1a1.27,1.27,0,0,0,.94-1.41c-.16-1.15-1.26-1.06-2.06-1l.3-2,1-4.26a2.77,2.77,0,0,0,.08-1,1.66,1.66,0,0,0-1.61-1.31,3.49,3.49,0,0,0-2.08,1.2,43.39,43.39,0,0,0-3.6,4,40.19,40.19,0,0,0-4.18,5.68l-1.6.55a10.35,10.35,0,0,0-2.18.8,1.09,1.09,0,0,0-.54,1.21,1.25,1.25,0,0,0,1.22,1,6.18,6.18,0,0,0,1.21-.33l-1.54,2.86-.67,1.49a2.48,2.48,0,0,0-.22,1,1.24,1.24,0,0,0,.45.76c.83.7,1.81.21,2.26-.73q1.64-3.39,3.51-6.65A33.55,33.55,0,0,1,312.93,527Z" transform="translate(-110.54 -192.05)"/><path class="cls-3" d="M356.34,523.09a42,42,0,0,1,2.31-4,1.34,1.34,0,0,0,.18-.61c2.82-.62,4.3-.39,6.95-.59.66-.05,1.42-.85,1.18-1.56l-.29-.54a3,3,0,0,0-1.68-.44h0a43.87,43.87,0,0,0-5.91.48c-.94.12-3.06.41-3.68,1a1.15,1.15,0,0,0-.21.87v0a1.35,1.35,0,0,0,.54.92l-2.77,5a46.63,46.63,0,0,0-3,7.47,26.67,26.67,0,0,0-.61,2.76,1.86,1.86,0,0,0,1.75,1.56,1.56,1.56,0,0,0,1-.28,16.12,16.12,0,0,1,6.94-1.75l1-.08a.94.94,0,0,0,.76-1.16c-.46-2.6-7.45-.25-8.28,0a32,32,0,0,1,2.4-6.24,26.66,26.66,0,0,1,5.76-.78,6.31,6.31,0,0,0,1-.16,1,1,0,0,0,.65-1.17,1.45,1.45,0,0,0-1.63-1.13A33.32,33.32,0,0,0,356.34,523.09Z" transform="translate(-110.54 -192.05)"/><path class="cls-3" d="M373.82,527.39A33.56,33.56,0,0,1,377,518.6l.3-.64.15-.43.06-.57a1.68,1.68,0,0,0-2.54-1.11l-.62.5a31.75,31.75,0,0,0-2.3,2.87,53.51,53.51,0,0,0-6.35,11.13L364,535.41a1.06,1.06,0,0,0,.3,1,1.4,1.4,0,0,0,2.08-.34,3.67,3.67,0,0,0,.59-1.2,52.74,52.74,0,0,1,5.33-12c-.62,1.65-2.44,6.76-1,8.57a1.93,1.93,0,0,0,2.9,0,7.78,7.78,0,0,0,1.5-2.17,53.31,53.31,0,0,1,4.19-7c-1,2.19-4.56,10.41-2.68,13a1.52,1.52,0,0,0,1.19.67,1.24,1.24,0,0,0,1.05-.51c.69-.87.21-1.26.06-2.15-.25-1.46,1.32-6.75,2.1-8.62l3.34-7.36a1.47,1.47,0,0,0-.37-2c-1.2-.83-2.14-.13-3,.75C379.52,518.24,375.73,524.14,373.82,527.39Z" transform="translate(-110.54 -192.05)"/><path class="cls-3" d="M459.86,527a23.51,23.51,0,0,0-1.08,4.3c-.18,1.11-.38,3.2.4,3.94a1.68,1.68,0,0,0,1.66.45.86.86,0,0,0,.54-.93,11.41,11.41,0,0,1,.2-3.73,38.71,38.71,0,0,1,5-12.13,3.16,3.16,0,0,0,.58-1.59v-.07a1.48,1.48,0,0,0-2.41-.62,29.67,29.67,0,0,0-3.94,4.94q-3.72,5.4-7.78,10.55l-.59.62a1.27,1.27,0,0,1-.63.36c-.5,0-.25-1.6-.18-1.93a21.27,21.27,0,0,1,.93-3.3,27.37,27.37,0,0,1,4-7l2.46-3a2,2,0,0,0,.31-.94,1.37,1.37,0,0,0-1.81-1c-2.84,1.14-11.17,14.66-7.89,19a2.53,2.53,0,0,0,3.75.38,23.27,23.27,0,0,0,4.35-5.09Q458.75,528.54,459.86,527Z" transform="translate(-110.54 -192.05)"/><path class="cls-3" d="M476.79,527.39a33.59,33.59,0,0,1,3.13-8.78l.3-.64.15-.43.06-.57a1.68,1.68,0,0,0-2.54-1.11l-.62.5a31.68,31.68,0,0,0-2.3,2.87,53.5,53.5,0,0,0-6.35,11.13l-1.68,5.06a1.06,1.06,0,0,0,.3,1,1.4,1.4,0,0,0,2.08-.34,3.67,3.67,0,0,0,.59-1.2,52.74,52.74,0,0,1,5.33-12c-.62,1.65-2.44,6.76-1,8.57a1.93,1.93,0,0,0,2.9,0,7.78,7.78,0,0,0,1.5-2.17,53.31,53.31,0,0,1,4.19-7c-1,2.19-4.56,10.41-2.68,13a1.52,1.52,0,0,0,1.19.67,1.24,1.24,0,0,0,1.05-.51c.69-.87.21-1.26.06-2.15-.25-1.46,1.32-6.75,2.1-8.62l3.34-7.36a1.47,1.47,0,0,0-.37-2c-1.2-.83-2.14-.13-3,.75C482.49,518.24,478.7,524.14,476.79,527.39Z" transform="translate(-110.54 -192.05)"/><path class="cls-3" d="M184,515.61c-4.62.14-8.58,7.06-9.42,8.64-1.36,2.55-2.43,5.08-2.07,7.93a4.66,4.66,0,0,0,4.59,4.06,6.36,6.36,0,0,0,3.86-1.41,11.6,11.6,0,0,0,2.88-3.13l1.09-1.91a2.46,2.46,0,0,0,.3-1.22.91.91,0,0,0-1.53-.52l-.06.05a23.26,23.26,0,0,1-2.47,3.58c-.76.86-2.17,2.13-3.57,2.18a2.32,2.32,0,0,1-2.13-1.9c-.66-4.43,3.52-10.61,6.8-13.12a4.1,4.1,0,0,1,2-1,.41.41,0,0,1,.46.4,3.92,3.92,0,0,1-.7,2.29,6.38,6.38,0,0,1-1.74,1.83l-.57.5-.3.43-.11.59a1.5,1.5,0,0,0,1.46,1.28,1.81,1.81,0,0,0,1-.37c1.86-1.44,3.44-4.29,3.14-6.74A2.77,2.77,0,0,0,184,515.61Z" transform="translate(-110.54 -192.05)"/><path class="cls-3" d="M195.5,525.21a31.11,31.11,0,0,1,3.63-4.66q.3-.33.62-.62l-.66,2.68-.33,1.85Zm3,1.79-.14,1.88c-.14,1.58-.33,5.29.51,6.46a1.63,1.63,0,0,0,1.38.7,1,1,0,0,0,1-1.12q-.16-1.86-.15-3.72a40.6,40.6,0,0,1,.34-4.61l1.48-.1a1.27,1.27,0,0,0,.93-1.41c-.16-1.15-1.26-1.06-2.06-1l.3-2,1-4.26a2.79,2.79,0,0,0,.08-1,1.66,1.66,0,0,0-1.61-1.31,3.5,3.5,0,0,0-2.08,1.2,43.4,43.4,0,0,0-3.6,4,40.18,40.18,0,0,0-4.18,5.68l-1.6.55a10.35,10.35,0,0,0-2.18.8,1.09,1.09,0,0,0-.54,1.21,1.25,1.25,0,0,0,1.22,1,6.17,6.17,0,0,0,1.21-.33l-1.54,2.86-.66,1.49a2.48,2.48,0,0,0-.22,1,1.25,1.25,0,0,0,.45.76c.83.7,1.82.21,2.26-.73q1.64-3.39,3.51-6.65A33.54,33.54,0,0,1,198.45,527Z" transform="translate(-110.54 -192.05)"/><path class="cls-3" d="M208.8,528.21a3.29,3.29,0,0,0-3.1,3.58c.5,2.53,3.24,3.46,5.49,3.44a7.62,7.62,0,0,0,4.21-1.14,3.47,3.47,0,0,0,1.9-3.44,4.42,4.42,0,0,0-1-2.07l-3.05-3.6a3.92,3.92,0,0,1-.78-1.69c-.32-2,1.76-3.84,3.47-4.67.57-.27,3-1.25,3.14-.27.1.61-.79,1.54-1.32,2a9.13,9.13,0,0,1-3,1.61l-.73.33a1.07,1.07,0,0,0-.09,1.79,1.87,1.87,0,0,0,2,.19,10.07,10.07,0,0,0,5.32-4.35,2.69,2.69,0,0,0-.9-3.82c-3.19-1.76-8.4,1.4-10,4.36-2.15,3.95,1.69,6.62,3.74,9.29a1.53,1.53,0,0,1-.13,2.18,4.84,4.84,0,0,1-4.74.62c-.51-.26-1-1.06-.65-1.61a4.76,4.76,0,0,1,1.23-.68,1,1,0,0,0,.46-1h0A1.31,1.31,0,0,0,208.8,528.21Z" transform="translate(-110.54 -192.05)"/><path class="cls-3" d="M275.31,527.39a33.61,33.61,0,0,1,3.13-8.78l.3-.64.15-.43L279,517a1.68,1.68,0,0,0-2.54-1.11l-.62.5a31.68,31.68,0,0,0-2.3,2.87,53.47,53.47,0,0,0-6.35,11.13l-1.68,5.06a1.06,1.06,0,0,0,.3,1,1.4,1.4,0,0,0,2.08-.34,3.65,3.65,0,0,0,.59-1.2,52.74,52.74,0,0,1,5.33-12c-.62,1.65-2.44,6.76-1,8.57a1.93,1.93,0,0,0,2.9,0,7.79,7.79,0,0,0,1.5-2.17,53.31,53.31,0,0,1,4.19-7c-1,2.19-4.56,10.41-2.68,13a1.52,1.52,0,0,0,1.19.67,1.24,1.24,0,0,0,1.05-.51c.69-.87.21-1.26.06-2.15-.25-1.46,1.32-6.75,2.1-8.62l3.34-7.36a1.47,1.47,0,0,0-.37-2c-1.2-.83-2.14-.13-3,.75C281,518.24,277.22,524.14,275.31,527.39Z" transform="translate(-110.54 -192.05)"/><path class="cls-3" d="M330,518.83a70.23,70.23,0,0,0-4.53,9.34l-1,2.62-.73,2.54a2.3,2.3,0,0,0,.35,2.25,1.69,1.69,0,0,0,1.25.61c.81,0,1.06-.69,1.14-1.32a33.58,33.58,0,0,1,2-6.53,65,65,0,0,1,4.3-8.77,2.42,2.42,0,0,0,.43-1.24v-.05c1.6-.21,5.21-.31,7.06-.41.66,0,1.73-.56,1.42-1.44l-.23-.47a3.16,3.16,0,0,0-1.67-.53,44.07,44.07,0,0,0-9.54.7c-1.25.22-5.95,1.05-6.78,1.66a1.14,1.14,0,0,0-.25,1.59,1.11,1.11,0,0,0,.17.18,1.78,1.78,0,0,0,2,.23Q327.63,519.2,330,518.83Z" transform="translate(-110.54 -192.05)"/><path class="cls-3" d="M395,519.24a6,6,0,0,1,4.93-.39c.89.47.55,1.8.12,2.49a8.75,8.75,0,0,1-6.71,4.17l-.52-.06A63.74,63.74,0,0,0,395,519.24ZM391.89,528a10.2,10.2,0,0,0,5.42-.82c2.67-1.14,6-4.14,5.41-7.58a4.72,4.72,0,0,0-4.63-3.65l-1.46.15-1.45.33c-.54-.92-1.41-.72-2.1-.3a4.35,4.35,0,0,0-.37,1.2l-1.59.91c-.82.56-1.82,1.55-1,2.54a1.25,1.25,0,0,0,1.55.3q-.74,1.95-1.58,3.85a1.36,1.36,0,0,0-1.15.26,1.15,1.15,0,0,0,0,1.82l.22.16-1.64,4.58-.48,1.86a1.69,1.69,0,0,0,.42,1.92c.57.5,1.51.7,2-.11a2.35,2.35,0,0,0,.29-.79l.58-2.31Z" transform="translate(-110.54 -192.05)"/><path class="cls-3" d="M413.37,518.18a2.65,2.65,0,0,1,1.68.44c1.9,1.33.62,5.26-.34,7a27.68,27.68,0,0,1-4.12,5.65l-1.44,1.28a3.25,3.25,0,0,1-1.82.76c-1.52.07-1.17-2.81-.89-3.86,1.1-4.25,3.46-6.78,6.1-9.83l.55-.69A1.21,1.21,0,0,0,413.37,518.18Zm-3.8,1a25.06,25.06,0,0,0-5,7.16c-1.15,2.4-2,6.41-.11,8.51,2.46,2.73,5.88.36,7.78-1.53,2.89-2.89,7.14-8.78,6.47-13.46a5.19,5.19,0,0,0-5.31-4.16,10.94,10.94,0,0,0-3.28.54c-1,.3-3,1.08-2.87,2.19a1.38,1.38,0,0,0,1.28,1.12,1.8,1.8,0,0,0,.77-.24Z" transform="translate(-110.54 -192.05)"/><path class="cls-3" d="M429.86,518.86a7.44,7.44,0,0,1,2.88-.69c.85,0,2,.19,2.11,1.21a2.11,2.11,0,0,1-.19,1.24c-1.21,2.41-4.35,3.88-7,3.83h-.14C428.79,521.62,429,521.13,429.86,518.86Zm-4.53,10.19a54.08,54.08,0,0,0,3.53,5l1.11,1.35a1.92,1.92,0,0,0,.87.46,1.68,1.68,0,0,0,1.24-.62c.44-.52.09-1.17-.28-1.58l-1.58-1.92c-.62-.82-2.91-4.27-3.22-4.83a13.74,13.74,0,0,0,4.57-.72c3-.95,6.25-3.5,5.69-7.06a4.24,4.24,0,0,0-4.72-3.5l-1.29.1-1.12.24a1.75,1.75,0,0,0-1.73-.38c-.61.2-.63.8-.75,1.3l-1.15.53c-1,.47-1.47,1.34-.9,2.3a1,1,0,0,0,1,.42,36,36,0,0,1-1.76,3.9l-.3,0a1.22,1.22,0,0,0-1.24,1.51,4.13,4.13,0,0,0,.3.88,40.86,40.86,0,0,0-1.86,4.48,24.32,24.32,0,0,0-.9,3.7,1.38,1.38,0,0,0,.44.79h0a1.61,1.61,0,0,0,2,0,4.48,4.48,0,0,0,.4-1A34.53,34.53,0,0,1,425.34,529.06Z" transform="translate(-110.54 -192.05)"/><path class="cls-3" d="M443.34,520.52a41.13,41.13,0,0,0-4.62,10.56,9.82,9.82,0,0,0-.37,2.77,1.58,1.58,0,0,0,1.5,1.35c.9,0,1.17-.76,1.22-1.46a25.32,25.32,0,0,1,2-6.83,48.21,48.21,0,0,1,3.77-6.77c.35-.53,1.28-2,1.48-2.45a1.37,1.37,0,0,0-1.25-1.94l-.47.15C445.8,516.34,443.95,519.44,443.34,520.52Z" transform="translate(-110.54 -192.05)"/></svg>